<?xml version="1.0" encoding="UTF-8" standalone="no"?>
<!-- Created with Inkscape (http://www.inkscape.org/) -->

<svg
   xmlns:dc="http://purl.org/dc/elements/1.1/"
   xmlns:cc="http://creativecommons.org/ns#"
   xmlns:rdf="http://www.w3.org/1999/02/22-rdf-syntax-ns#"
   xmlns:svg="http://www.w3.org/2000/svg"
   xmlns="http://www.w3.org/2000/svg"
   xmlns:sodipodi="http://sodipodi.sourceforge.net/DTD/sodipodi-0.dtd"
   xmlns:inkscape="http://www.inkscape.org/namespaces/inkscape"
   width="206.21466mm"
   height="31.597599mm"
   viewBox="0 0 206.21466 31.597599"
   version="1.1"
   id="svg8"
   inkscape:version="0.92.1 r"
   sodipodi:docname="logo.svg">
  <defs
     id="defs2" />
  <sodipodi:namedview
     id="base"
     pagecolor="#ffffff"
     bordercolor="#666666"
     borderopacity="1.0"
     inkscape:pageopacity="0.0"
     inkscape:pageshadow="2"
     inkscape:zoom="0.35"
     inkscape:cx="-371.23656"
     inkscape:cy="109.53142"
     inkscape:document-units="mm"
     inkscape:current-layer="layer1"
     showgrid="false"
     inkscape:window-width="1600"
     inkscape:window-height="900"
     inkscape:window-x="0"
     inkscape:window-y="0"
     inkscape:window-maximized="0" />
  <metadata
     id="metadata5">
    <rdf:RDF>
      <cc:Work
         rdf:about="">
        <dc:format>image/svg+xml</dc:format>
        <dc:type
           rdf:resource="http://purl.org/dc/dcmitype/StillImage" />
        <dc:title></dc:title>
      </cc:Work>
    </rdf:RDF>
  </metadata>
  <g
     inkscape:label="Layer 1"
     inkscape:groupmode="layer"
     id="layer1"
     transform="translate(-46.818245,-28.287351)">
    <text
       xml:space="preserve"
       style="font-style:normal;font-variant:normal;font-weight:normal;font-stretch:normal;font-size:50.79999924px;line-height:6.61458302px;font-family:Airstream;-inkscape-font-specification:'Airstream, Normal';font-variant-ligatures:normal;font-variant-caps:normal;font-variant-numeric:normal;font-feature-settings:normal;text-align:start;letter-spacing:0px;word-spacing:0px;writing-mode:lr-tb;text-anchor:start;fill:#000000;fill-opacity:1;stroke:none;stroke-width:0.26458332px;stroke-linecap:butt;stroke-linejoin:miter;stroke-opacity:1"
       x="46.869045"
       y="59.630951"
       id="text4487"
       inkscape:export-xdpi="96"
       inkscape:export-ydpi="96"><tspan
         sodipodi:role="line"
         id="tspan4485"
         x="46.869045"
         y="59.630951"
         style="font-style:normal;font-variant:normal;font-weight:normal;font-stretch:normal;font-size:50.79999924px;font-family:Airstream;-inkscape-font-specification:'Airstream, Normal';font-variant-ligatures:normal;font-variant-caps:normal;font-variant-numeric:normal;font-feature-settings:normal;text-align:start;writing-mode:lr-tb;text-anchor:start;stroke-width:0.26458332px">Makers' Den</tspan></text>
    <g
       aria-label="Makers' Den"
       style="font-style:normal;font-variant:normal;font-weight:normal;font-stretch:normal;font-size:50.79999924px;line-height:6.61458302px;font-family:Airstream;-inkscape-font-specification:'Airstream, Normal';font-variant-ligatures:normal;font-variant-caps:normal;font-variant-numeric:normal;font-feature-settings:normal;text-align:start;letter-spacing:0px;word-spacing:0px;writing-mode:lr-tb;text-anchor:start;fill:#000000;fill-opacity:1;stroke:none;stroke-width:0.26458332px;stroke-linecap:butt;stroke-linejoin:miter;stroke-opacity:1"
       id="text4529">
      <path
         d="m 86.848645,29.455751 q -0.2032,0.4064 -0.4064,0.8636 -0.1524,0.4064 -0.4064,0.8636 0,0.0508 -0.0508,0.1016 0,0 0,0.0508 -0.4572,0.9652 -0.8636,1.8796 -0.4064,0.8636 -0.7112,1.4224 -0.3556,0.762 -0.762,1.6256 -0.4064,0.8128 -0.762,1.7272 -0.4572,0.8636 -0.8636,1.8288 -0.3556,0.9144 -0.762,1.8288 -1.0668,2.5908 -1.8288,5.1308 -0.762,2.4892 -0.762,4.4196 0,1.4224 0.762,2.3368 0.8128,0.9144 2.8448,0.9652 h 2.4892 l -1.6256,4.9784 h -0.8636 q -4.7752,0 -6.7564,-2.286 -1.9304,-2.286 -1.8796,-5.9944 0,-0.8636 0.1016,-1.7272 0.1016,-0.9144 0.3048,-1.8288 -2.032,2.794 -4.1148,5.7404 -2.0828,2.9464 -4.4196,6.096 h -5.3848 l 3.81,-15.3924 q -2.4892,3.9116 -5.1816,7.7724 -2.6416,3.8608 -5.588,7.62 h -6.35 q 1.1684,-1.524 2.3876,-3.0988 1.2192,-1.6256 2.4384,-3.3528 1.2192,-1.7272 2.4384,-3.5052 1.27,-1.778 2.4892,-3.556 2.2352,-3.302 4.318,-6.5532 2.1336,-3.302 3.9624,-6.1976 0.5588,-0.8636 1.1176,-1.7272 0.5588,-0.9144 1.27,-2.032 h 5.5372 l -4.318,17.3228 q 0.3556,-0.508 0.7112,-1.016 0.4064,-0.5588 0.762,-1.0668 0.4064,-0.508 0.762,-1.016 0.4064,-0.5588 0.762,-1.0668 2.2352,-3.1496 4.5212,-6.4008 2.3368,-3.2512 4.8768,-6.7564 h 5.9944 z"
         style="font-style:normal;font-variant:normal;font-weight:normal;font-stretch:normal;font-size:50.79999924px;font-family:Airstream;-inkscape-font-specification:'Airstream, Normal';font-variant-ligatures:normal;font-variant-caps:normal;font-variant-numeric:normal;font-feature-settings:normal;text-align:start;writing-mode:lr-tb;text-anchor:start;stroke-width:0.26458332px"
         id="path4531" />
      <path
         d="m 105.82165,54.500151 -1.6256,5.0292 h -4.927599 q -0.8128,0 -1.4732,-0.254 -0.6604,-0.254 -1.2192,-0.6604 -0.762,0.4572 -1.6764,0.762 -0.8636,0.3048 -1.7272,0.4064 -0.3048,0.0508 -0.6096,0.0508 -0.3048,0.0508 -0.6096,0.0508 -1.5748,0 -2.9972,-0.7112 -1.3716,-0.7112 -2.1844,-2.286 -0.304799,-0.6604 -0.457199,-1.27 -0.1524,-0.6604 -0.1524,-1.3208 0,-1.3208 0.507999,-2.54 0.508,-1.27 1.3208,-2.3368 2.54,-3.4036 6.2992,-4.7752 3.81,-1.4224 7.873999,-1.524 0.1524,0 0.3048,0 0.2032,0 0.4064,0 v 5.0292 q -1.6256,0 -3.251199,0.2032 -1.5748,0.2032 -3.048,0.762 -1.3208,0.4572 -2.4892,1.27 -1.1684,0.8128 -2.032,1.9812 -0.0508,0.1016 -0.1524,0.254 -0.1016,0.1524 -0.2032,0.3556 -0.1016,0.1524 -0.2032,0.3048 -0.0508,0.1524 -0.1524,0.3556 -0.0508,0.1524 -0.1016,0.3556 -0.0508,0.2032 -0.0508,0.3556 0,0.2032 0.1524,0.4064 0.1524,0.1524 0.508,0.1524 1.9812,0 2.9464,-1.3208 0.9652,-1.3208 1.524,-2.8956 0.1016,-0.3556 0.2032,-0.6604 0.1016,-0.3048 0.2032,-0.6096 l 4.775199,1.5748 -1.1176,3.5052 h 5.4356 z"
         style="font-style:normal;font-variant:normal;font-weight:normal;font-stretch:normal;font-size:50.79999924px;font-family:Airstream;-inkscape-font-specification:'Airstream, Normal';font-variant-ligatures:normal;font-variant-caps:normal;font-variant-numeric:normal;font-feature-settings:normal;text-align:start;writing-mode:lr-tb;text-anchor:start;stroke-width:0.26458332px"
         id="path4533" />
      <path
         d="m 123.81437,46.016551 -7.4168,5.4864 1.27,2.8956 q 0.1016,0.0508 0.254,0.1016 0.2032,0 0.4064,0 h 3.7592 l -1.6764,5.0292 h -2.0828 q -0.0508,0 -0.1524,0 -0.0508,0 -0.1016,0 -1.4732,-0.0508 -2.8448,-0.7112 -1.3716,-0.6604 -2.032,-2.1844 l -1.3208,-2.9972 -1.9304,5.8928 h -5.2832 l 10.1092,-31.242 h 5.2832 l -6.0452,18.7452 6.8072,-5.08 2.9972,4.064 z"
         style="font-style:normal;font-variant:normal;font-weight:normal;font-stretch:normal;font-size:50.79999924px;font-family:Airstream;-inkscape-font-specification:'Airstream, Normal';font-variant-ligatures:normal;font-variant-caps:normal;font-variant-numeric:normal;font-feature-settings:normal;text-align:start;writing-mode:lr-tb;text-anchor:start;stroke-width:0.26458332px"
         id="path4535" />
      <path
         d="m 140.55377,54.500151 -1.6764,5.0292 h -11.0744 q -1.3716,0 -2.5908,-0.5588 -1.1684,-0.6096 -1.8288,-1.8288 -0.3048,-0.5588 -0.4572,-1.2192 -0.1524,-0.6604 -0.1524,-1.3208 0,-0.1524 0,-0.3048 0.0508,-0.2032 0.0508,-0.4064 0.1016,-1.016 0.4064,-2.032 0.3556,-1.0668 0.7112,-1.9304 1.0668,-2.4384 2.5908,-4.0132 1.5748,-1.6256 3.2512,-2.4384 0.7112,-0.4064 1.3716,-0.6096 0.7112,-0.254 1.3716,-0.3556 0.3048,-0.0508 0.6096,-0.0508 0.3048,-0.0508 0.6604,-0.0508 2.0828,0 3.7084,1.1684 1.6256,1.1684 1.6256,3.2512 0,0.4064 -0.1016,0.8636 -0.0508,0.4064 -0.254,0.9144 -0.4064,1.27 -1.6764,2.794 -1.27,1.4732 -3.556,3.0988 h 7.0104 z m -6.6548,-7.1628 q -1.8288,0.1016 -3.2004,1.4224 -1.3716,1.3208 -2.032,2.8956 0,0.0508 -0.0508,0.1016 0,0 0,0.0508 2.3368,-1.3716 3.556,-2.4892 1.27,-1.1684 1.7272,-1.9812 z"
         style="font-style:normal;font-variant:normal;font-weight:normal;font-stretch:normal;font-size:50.79999924px;font-family:Airstream;-inkscape-font-specification:'Airstream, Normal';font-variant-ligatures:normal;font-variant-caps:normal;font-variant-numeric:normal;font-feature-settings:normal;text-align:start;writing-mode:lr-tb;text-anchor:start;stroke-width:0.26458332px"
         id="path4537" />
      <path
         d="m 157.51065,48.150151 h -1.9304 q -0.3048,0.2032 -0.9144,0.8128 -0.6096,0.6096 -1.27,1.3716 -0.2032,0.2032 -0.4064,0.4572 -0.2032,0.254 -0.4064,0.4572 -0.6604,0.8636 -1.1176,1.6256 -0.4572,0.7112 -0.4572,1.1684 0.0508,0.2032 0.1524,0.3556 0.1524,0.1016 0.4572,0.1016 h 5.6896 l -1.6256,5.0292 q -0.3556,0 -0.9144,0 -0.508,0 -1.1176,0 -0.6096,0 -1.1684,0 -0.508,0 -0.8636,0 -1.5748,0 -2.9464,-0.7112 -1.3208,-0.7112 -2.0828,-2.1336 -0.1524,-0.3048 -0.254,-0.6096 -0.1016,-0.3048 -0.1524,-0.6604 -0.1016,-0.3048 -0.1524,-0.6096 0,-0.3048 0,-0.6096 0,-1.6256 0.7112,-3.1496 0.7112,-1.5748 1.6764,-2.8956 h -0.8128 q -0.1524,0 -0.3048,0.0508 -0.1016,0 -0.254,0.0508 -0.508,0.1524 -0.9652,0.6096 -0.4572,0.4064 -0.6604,0.8636 -0.0508,0.0508 -0.1016,0.1524 0,0.0508 0,0.1016 l -0.4064,1.1684 -4.7752,-1.5748 2.794,-8.7376 4.826,1.5748 -0.254,0.6604 h 10.0076 v 5.08 z"
         style="font-style:normal;font-variant:normal;font-weight:normal;font-stretch:normal;font-size:50.79999924px;font-family:Airstream;-inkscape-font-specification:'Airstream, Normal';font-variant-ligatures:normal;font-variant-caps:normal;font-variant-numeric:normal;font-feature-settings:normal;text-align:start;writing-mode:lr-tb;text-anchor:start;stroke-width:0.26458332px"
         id="path4539" />
      <path
         d="m 170.34796,51.858551 q 0,3.4036 -2.0828,5.5372 -2.0828,2.1336 -5.5372,2.1336 h -5.1308 l 1.6256,-5.0292 h 3.5052 q 1.3208,0 1.9304,-0.6096 0.6604,-0.6604 0.6604,-2.032 0,-0.7112 -0.1524,-1.3208 -0.1524,-0.6604 -0.4064,-1.1684 -0.9652,1.3208 -1.6764,2.286 -0.6604,0.9144 -0.6604,0.9652 l -4.064,-2.9464 q 0,0 1.0668,-1.524 1.1176,-1.524 2.4892,-3.3528 1.27,-1.8288 2.3876,-3.3528 1.1176,-1.524 1.1176,-1.5748 l 4.5212,2.2352 q -0.0508,0.0508 -0.6096,0.8636 -0.5588,0.8128 -1.4224,1.9812 1.1684,1.4224 1.778,3.2512 0.6604,1.778 0.6604,3.6576 z"
         style="font-style:normal;font-variant:normal;font-weight:normal;font-stretch:normal;font-size:50.79999924px;font-family:Airstream;-inkscape-font-specification:'Airstream, Normal';font-variant-ligatures:normal;font-variant-caps:normal;font-variant-numeric:normal;font-feature-settings:normal;text-align:start;writing-mode:lr-tb;text-anchor:start;stroke-width:0.26458332px"
         id="path4541" />
      <path
         d="m 179.12684,28.287351 -3.1496,5.842 h -4.826 l 3.2004,-5.842 h 4.7752 z"
         style="font-style:normal;font-variant:normal;font-weight:normal;font-stretch:normal;font-size:50.79999924px;font-family:Airstream;-inkscape-font-specification:'Airstream, Normal';font-variant-ligatures:normal;font-variant-caps:normal;font-variant-numeric:normal;font-feature-settings:normal;text-align:start;writing-mode:lr-tb;text-anchor:start;stroke-width:0.26458332px"
         id="path4543" />
      <path
         d="m 216.79504,32.046551 q 0.8636,1.0668 1.2192,2.286 0.4064,1.2192 0.4064,2.5908 0,2.3876 -1.2192,5.0292 -1.2192,2.6416 -3.4544,5.334 -1.3208,1.6256 -2.9972,3.2004 -1.6764,1.5748 -3.6576,3.0988 -1.8288,1.3716 -3.556,2.3876 -1.7272,1.016 -3.4544,1.7272 -0.3556,0.1524 -0.7112,0.3048 -0.3048,0.1016 -0.6604,0.2032 -1.1176,0.4064 -2.286,0.6604 -1.1176,0.2032 -2.2352,0.3556 -1.6764,0.2032 -3.4036,0.254 -1.6764,0 -3.4036,0 -0.2032,0 -0.4064,0 -0.2032,0 -0.4064,0 l 6.4008,-19.6088 h 5.2832 l -4.6736,14.3764 q 2.9464,-0.4064 5.4864,-1.6256 2.5908,-1.2192 4.9276,-2.9972 0.7112,-0.5588 1.8796,-1.5748 1.2192,-1.016 2.4892,-2.286 1.016,-1.016 1.9812,-2.1336 1.016,-1.1684 1.778,-2.3368 0.6604,-1.0668 1.016,-2.0828 0.4064,-1.016 0.4064,-1.9812 0,-0.6604 -0.2032,-1.2192 -0.2032,-0.6096 -0.7112,-1.1176 v -0.0508 q -0.508,-0.5588 -1.4732,-0.8128 -0.9652,-0.254 -2.286,-0.254 -0.8128,0 -1.6764,0.1016 -0.8636,0.1016 -1.8288,0.254 -3.048,0.508 -6.5532,1.7272 -3.5052,1.1684 -7.112,2.8448 -0.7112,0.3048 -1.4224,0.6096 -0.6604,0.3048 -1.3208,0.6604 l -2.1844,-4.572 q 0.8636,-0.4064 1.7272,-0.8128 0.9144,-0.4064 1.8288,-0.8128 3.7084,-1.5748 7.3152,-2.794 3.6576,-1.2192 6.858,-1.778 1.016,-0.2032 2.0828,-0.3048 1.0668,-0.1016 2.1844,-0.1016 0.1016,0 0.1524,0 0.1016,0 0.2032,0 2.1844,0.0508 4.2164,0.762 2.0828,0.7112 3.4544,2.4892 z"
         style="font-style:normal;font-variant:normal;font-weight:normal;font-stretch:normal;font-size:50.79999924px;font-family:Airstream;-inkscape-font-specification:'Airstream, Normal';font-variant-ligatures:normal;font-variant-caps:normal;font-variant-numeric:normal;font-feature-settings:normal;text-align:start;writing-mode:lr-tb;text-anchor:start;stroke-width:0.26458332px"
         id="path4545" />
      <path
         d="m 232.87682,54.500151 -1.6764,5.0292 h -11.0744 q -1.3716,0 -2.5908,-0.5588 -1.1684,-0.6096 -1.8288,-1.8288 -0.3048,-0.5588 -0.4572,-1.2192 -0.1524,-0.6604 -0.1524,-1.3208 0,-0.1524 0,-0.3048 0.0508,-0.2032 0.0508,-0.4064 0.1016,-1.016 0.4064,-2.032 0.3556,-1.0668 0.7112,-1.9304 1.0668,-2.4384 2.5908,-4.0132 1.5748,-1.6256 3.2512,-2.4384 0.7112,-0.4064 1.3716,-0.6096 0.7112,-0.254 1.3716,-0.3556 0.3048,-0.0508 0.6096,-0.0508 0.3048,-0.0508 0.6604,-0.0508 2.0828,0 3.7084,1.1684 1.6256,1.1684 1.6256,3.2512 0,0.4064 -0.1016,0.8636 -0.0508,0.4064 -0.254,0.9144 -0.4064,1.27 -1.6764,2.794 -1.27,1.4732 -3.556,3.0988 h 7.0104 z m -6.6548,-7.1628 q -1.8288,0.1016 -3.2004,1.4224 -1.3716,1.3208 -2.032,2.8956 0,0.0508 -0.0508,0.1016 0,0 0,0.0508 2.3368,-1.3716 3.556,-2.4892 1.27,-1.1684 1.7272,-1.9812 z"
         style="font-style:normal;font-variant:normal;font-weight:normal;font-stretch:normal;font-size:50.79999924px;font-family:Airstream;-inkscape-font-specification:'Airstream, Normal';font-variant-ligatures:normal;font-variant-caps:normal;font-variant-numeric:normal;font-feature-settings:normal;text-align:start;writing-mode:lr-tb;text-anchor:start;stroke-width:0.26458332px"
         id="path4547" />
      <path
         d="m 253.03291,54.500151 -1.6764,5.0292 h -3.5052 q -1.8796,0 -3.048,-1.2192 -1.1684,-1.2192 -1.1684,-2.9464 0,-0.3556 0.0508,-0.7112 0.1016,-0.4064 0.2032,-0.762 0.1016,-0.3556 0.2032,-0.6604 0.1016,-0.3556 0.2032,-0.6604 0.2032,-0.6604 0.4064,-1.3208 0.2032,-0.6604 0.4064,-1.3208 0.0508,-0.1016 0.0508,-0.2032 0.0508,-0.1016 0.0508,-0.2032 0.1016,-0.254 0.1524,-0.5588 0.1016,-0.3048 0.1524,-0.6096 -0.4064,0.1524 -0.9652,0.508 -0.5588,0.3556 -1.1176,0.8636 -1.4224,1.2192 -2.6924,2.8956 -1.2192,1.6764 -1.9304,3.4544 l -1.1176,3.4544 h -5.2832 l 5.334,-16.4592 h 5.2832 l -0.3556,1.0668 q 0.5588,-0.3048 1.1176,-0.508 0.6096,-0.254 1.2192,-0.3556 0.3048,-0.1016 0.5588,-0.1016 0.3048,-0.0508 0.6096,-0.0508 0.4064,0 0.8128,0.1016 0.4572,0.0508 0.8128,0.2032 1.4732,0.508 2.1336,1.778 0.6604,1.27 0.6604,2.7432 0,0.762 -0.2032,1.6764 -0.1524,0.8636 -0.508,1.8796 -0.1524,0.3556 -0.254,0.762 -0.1016,0.3556 -0.2032,0.7112 -0.0508,0.1524 -0.1016,0.3048 -0.0508,0.1016 -0.0508,0.2032 -0.1016,0.254 -0.1524,0.508 -0.0508,0.254 -0.1524,0.508 h 4.064 z"
         style="font-style:normal;font-variant:normal;font-weight:normal;font-stretch:normal;font-size:50.79999924px;font-family:Airstream;-inkscape-font-specification:'Airstream, Normal';font-variant-ligatures:normal;font-variant-caps:normal;font-variant-numeric:normal;font-feature-settings:normal;text-align:start;writing-mode:lr-tb;text-anchor:start;stroke-width:0.26458332px"
         id="path4549" />
    </g>
  </g>
</svg>
