<svg xmlns="http://www.w3.org/2000/svg" xmlns:xlink="http://www.w3.org/1999/xlink" viewBox="0 0 811 236"><defs><style>.a{fill:#f77e00;}.b{fill:#f99926;}.c{fill:#ffca00;}.d{fill:#ffd235;}.e{fill:#ffd028;}.f{fill:#f6ae00;}.g{fill:#eb6d00;}.h,.i{opacity:0.1;}.h{fill:url(#a);}.i{fill:url(#b);}.j{fill:#767677;}</style><linearGradient id="a" x1="195.4" y1="145.74" x2="237.11" y2="145.74" gradientUnits="userSpaceOnUse"><stop offset="0" stop-opacity="0.7"/><stop offset="1" stop-opacity="0"/></linearGradient><linearGradient id="b" x1="182.71" y1="145.74" x2="187.42" y2="145.74" gradientUnits="userSpaceOnUse"><stop offset="0" stop-opacity="0.25"/><stop offset="0.77" stop-opacity="0"/></linearGradient></defs><title>google-analytics-default</title><path class="a" d="M233,213H181.1V31.32c0-8.29,6.29-15,14.58-15H233a15,15,0,0,1,15,15V198A15,15,0,0,1,233,213Z"/><path class="b" d="M233.06,17.54h-37c-13.34,0-15,13.73-15,13.73,0-8.27,6-15,15-15h37a15,15,0,0,1,15,15S245.75,17.54,233.06,17.54Z"/><path class="c" d="M128.75,78.49a15,15,0,0,0-15,15v52.35H66.62a15.1,15.1,0,0,0-15.28,15.06v36.81A15.28,15.28,0,0,0,66.62,213H181.1V78.49Z"/><path class="d" d="M113.74,145.85H66.62a15.1,15.1,0,0,0-15.28,15.06s1.94-13.77,15.28-13.77h47.12Z"/><path class="e" d="M128.78,79.92H181.1V78.49H128.75a15,15,0,0,0-15,15S115.14,79.92,128.78,79.92Z"/><path class="f" d="M181.1,213H66.52a15.15,15.15,0,0,1-15.18-15s2.5,13.73,15.18,13.73H181.1Z"/><path class="g" d="M181.1,211.76h52c13.34,0,15-13.73,15-13.73,0,8.27-6,15-15,15h-52Z"/><path class="h" d="M233,213H181.1V78.49L248,145.85V198A15,15,0,0,1,233,213Z"/><polygon class="i" points="188.66 213 181.1 213 181.1 78.49 188.2 85.64 188.66 213"/><path class="j" d="M417,48.27H373.18v13H404.3c-1.54,18.26-16.73,26-31.06,26A34.21,34.21,0,0,1,338.89,53.2h0v-.59c0-19.71,15.26-34.88,34.39-34.88a33.77,33.77,0,0,1,23.45,9.54l9.12-9.44s-11.7-13-33-13c-27.17,0-48.2,22.93-48.2,47.71a48.46,48.46,0,0,0,48.89,47.94c25.61,0,44.35-17.54,44.35-43.48a39,39,0,0,0-.79-8.63h0Z"/><path class="j" d="M453,38.88a30.38,30.38,0,0,0-30.9,29.85h0v.63c0,16.66,12.51,31,31.12,31,16.84,0,30.64-12.87,30.64-30.64,0-20.36-16-30.85-30.85-30.85h0ZM453.16,51c8.85,0,17.24,7.16,17.24,18.69,0,11.29-8.35,18.65-17.28,18.65-9.81,0-17.55-7.86-17.55-18.74C435.57,59,443.21,51,453.16,51Z"/><path class="j" d="M520.21,38.88a30.38,30.38,0,0,0-30.9,29.85h0v.63c0,16.66,12.51,31,31.12,31,16.84,0,30.64-12.87,30.64-30.64,0-20.36-16-30.85-30.85-30.85h0ZM520.39,51c8.85,0,17.24,7.16,17.24,18.69,0,11.29-8.35,18.65-17.28,18.65-9.81,0-17.55-7.86-17.55-18.74C502.8,59,510.44,51,520.39,51Z"/><path class="j" d="M586.13,38.91c-16.52,0-29.51,14.47-29.51,30.72,0,18.5,15.06,30.77,29.23,30.77,8.76,0,13.42-3.48,16.86-7.47V99c0,10.61-6.44,17-16.16,17-9.39,0-14.1-7-15.74-10.94L559,109.95c4.19,8.86,12.63,18.1,27.65,18.1,16.43,0,29-10.35,29-32.05V40.76H602.71V46a21.74,21.74,0,0,0-16.58-7.06Zm1.2,12c8.1,0,16.42,6.92,16.42,18.73,0,12-8.3,18.63-16.6,18.63-8.81,0-17-7.15-17-18.51C570.16,58,578.67,51,587.35,51h0Z"/><path class="j" d="M672.92,38.84c-15.59,0-28.68,12.4-28.68,30.7,0,19.36,14.59,30.85,30.17,30.85,13,0,21-7.12,25.75-13.49l-10.63-7.07c-2.75,4.27-7.36,8.44-15,8.44-8.64,0-12.62-4.73-15.08-9.32l41.22-17.1-2.14-5c-4-9.82-13.27-18-25.56-18h0Zm.54,11.82c5.62,0,9.66,3,11.38,6.57L657.3,68.73c-1.19-8.91,7.25-18.07,16.15-18.07h0Z"/><path class="j" d="M624.58,98.56h13.54V7.95H624.58Z"/><path class="j" d="M332,212.53h-8.52l22.54-59.79h8.68l22.54,59.79h-8.52L363,196.33H337.89Zm18.2-50.35-9.77,27h19.87l-9.77-27Z"/><path class="j" d="M382.56,171.61h7.35v5.68h.33a13.66,13.66,0,0,1,5.39-5,15.44,15.44,0,0,1,7.56-2q7.52,0,11.56,4.3t4,12.23v25.72h-7.68V187.31q-.25-10-10.1-10a9.61,9.61,0,0,0-7.68,3.72,13.46,13.46,0,0,0-3.09,8.89v22.63h-7.68Z"/><path class="j" d="M442.51,170.28q8.52,0,13.44,4.55t4.93,12.48v25.22h-7.35v-5.68h-.33q-4.76,7-12.69,7a16.5,16.5,0,0,1-11.31-4,12.8,12.8,0,0,1-4.55-10,12.16,12.16,0,0,1,4.8-10.1q4.8-3.76,12.82-3.76a22.68,22.68,0,0,1,11.27,2.5v-1.75a8.74,8.74,0,0,0-3.17-6.8,10.89,10.89,0,0,0-7.43-2.8,11.77,11.77,0,0,0-10.19,5.43L426,178.29Q431.57,170.28,442.51,170.28ZM432.57,200a6.13,6.13,0,0,0,2.55,5,9.37,9.37,0,0,0,6,2,12.24,12.24,0,0,0,8.64-3.59,11.24,11.24,0,0,0,3.8-8.43q-3.59-2.84-10-2.84a13,13,0,0,0-7.81,2.25A6.7,6.7,0,0,0,432.57,200Z"/><path class="j" d="M476.83,152.74v59.79h-7.68V152.74Z"/><path class="j" d="M522.34,171.61l-25.63,59h-7.93l9.52-20.62-16.87-38.33h8.35L502,201h.17L514,171.61Z"/><path class="j" d="M543.13,213.2a11.67,11.67,0,0,1-8.31-3.09q-3.3-3.09-3.38-8.6V178.63h-7.18v-7h7.18V159.09h7.68v12.53h10v7h-10V199q0,4.09,1.59,5.55A5.16,5.16,0,0,0,544.3,206a7.69,7.69,0,0,0,1.79-.21,9.19,9.19,0,0,0,1.63-.54l2.42,6.85A20.63,20.63,0,0,1,543.13,213.2Z"/><path class="j" d="M566.42,157.5a5.42,5.42,0,1,1-1.59-3.84A5.23,5.23,0,0,1,566.42,157.5Zm-1.59,14.11v40.92h-7.68V171.61Z"/><path class="j" d="M592.72,213.86a20.2,20.2,0,0,1-15.11-6.18,22,22,0,0,1-5.93-15.61q0-9.44,5.93-15.62a20.21,20.21,0,0,1,15.11-6.18,18.73,18.73,0,0,1,18,11.77l-7,2.92q-3.26-7.68-11.44-7.68a11.87,11.87,0,0,0-9.1,4.26,16.61,16.61,0,0,0,0,21,11.87,11.87,0,0,0,9.1,4.26q8.43,0,11.86-7.68l6.85,2.92a18.33,18.33,0,0,1-7.06,8.64A20,20,0,0,1,592.72,213.86Z"/><path class="j" d="M648.5,201.17a11.09,11.09,0,0,1-4.68,9,18.48,18.48,0,0,1-11.77,3.67,18.69,18.69,0,0,1-10.86-3.21,17.72,17.72,0,0,1-6.68-8.47l6.85-2.92a12.7,12.7,0,0,0,4.38,5.72,10.65,10.65,0,0,0,6.3,2,11.11,11.11,0,0,0,6.14-1.59q2.46-1.58,2.46-3.76,0-3.92-6-5.76l-7-1.75q-11.94-3-11.94-11.52a10.64,10.64,0,0,1,4.55-9q4.55-3.38,11.65-3.38a18.94,18.94,0,0,1,9.81,2.59,14.07,14.07,0,0,1,6.14,6.93L641,182.63a8.63,8.63,0,0,0-3.8-4,11.92,11.92,0,0,0-5.89-1.46,9.87,9.87,0,0,0-5.39,1.5,4.33,4.33,0,0,0-2.38,3.67q0,3.51,6.6,5l6.18,1.59Q648.5,191.9,648.5,201.17Z"/></svg>