<?xml version="1.0" encoding="utf-8"?>
<!-- Generator: Adobe Illustrator 18.1.1, SVG Export Plug-In . SVG Version: 6.00 Build 0)  -->
<svg version="1.1" id="Layer_1" xmlns="http://www.w3.org/2000/svg" xmlns:xlink="http://www.w3.org/1999/xlink" x="0px" y="0px"
	 viewBox="0 0 400 200" enable-background="new 0 0 400 200" xml:space="preserve">
<g id="black">
	<g id="logotype_horizontal_1_">
		<g>
			<path fill="#616D87" d="M96.7969,53.1959h-67.398c-4.6804,0-8.4247,3.7443-8.4247,8.4247v76.7588
				c0,4.6804,3.7443,8.4247,8.4247,8.4247h67.398c4.6804,0,8.4247-3.7443,8.4247-8.4247V61.6206
				C105.2216,56.9402,101.4773,53.1959,96.7969,53.1959z M100.5412,138.3794c0,2.1062-1.6381,3.7443-3.7443,3.7443h-67.398
				c-2.1062,0-3.7443-1.6381-3.7443-3.7443V61.6206c0-2.1062,1.6381-3.7443,3.7443-3.7443h67.398
				c2.1062,0,3.7443,1.6381,3.7443,3.7443V138.3794z"/>
			<polygon fill="#616D87" points="42.036,132.7629 52.5669,123.4021 42.036,114.0412 			"/>
			<path fill="#616D87" d="M80.0644,94.8515c-1.8722-1.9892-5.3825-4.2124-11.116-4.2124c-6.3186,0-12.8711,1.6381-17.5516,3.1593
				V67.2371H42.036v40.6026l6.6696-3.0423c0.117,0,10.765-4.7974,20.2428-4.7974c4.7974,0,5.8505,2.5742,5.8505,4.7974v27.9655
				h9.3608v-28.0825C84.1597,104.0954,84.1597,98.9469,80.0644,94.8515z"/>
			<path fill="#616D87" d="M67.7783,82.4484h9.3608c4.2124-4.7974,6.4356-9.9459,7.0206-15.2113h-9.3608
				C73.7458,72.5026,71.4056,77.651,67.7783,82.4484z"/>
		</g>
		<g>
			<path fill="#616D87" d="M152.0257,86.0758c-5.2655,0-11.9351,1.4041-16.3815,3.1593V67.2371h-9.3608v65.5258h9.3608V97.1917
				c4.5634-2.1062,10.999-3.1593,15.0943-3.1593c1.9892,0,3.7443,1.0531,3.7443,3.5103v35.2201h9.2438v-33.933
				C163.7268,91.4582,160.5675,86.0758,152.0257,86.0758z"/>
			<path fill="#616D87" d="M191.9263,85.9588c-7.8397,0-14.1582,0.9361-18.8387,2.8083
				c-1.7552,6.4356-2.3402,12.9882-2.3402,20.7108c0,14.1583,2.4572,23.2851,18.0196,23.2851
				c7.2546,0,13.3392-2.2232,18.3706-4.5634l-1.5211-7.2546c-4.6804,1.8722-10.765,3.7443-16.1474,3.7443
				c-6.9036,0-9.0098-1.4041-9.3608-12.8711h28.0825v-4.9144C208.1907,93.9155,203.9783,85.9588,191.9263,85.9588z
				 M180.1082,104.6804c0.117-4.9144,0.8191-9.7119,0.8191-9.7119s4.6804-0.9361,10.999-0.9361
				c6.3186,0,8.0737,3.9784,8.0737,10.6479L180.1082,104.6804L180.1082,104.6804z"/>
			<path fill="#616D87" d="M369.665,85.9588v35.1031c0,0-6.5526,3.5103-15.2113,3.5103c-1.9892,0-3.5103-0.8191-3.5103-3.2763
				V85.9588h-9.3608v34.167c0,7.3717,3.8613,12.6371,11.701,12.6371c13.5732,0,25.7423-7.0206,25.7423-7.0206V85.9588H369.665z"/>
			<path fill="#616D87" d="M266.6959,85.9588c-12.4031,0-21.0619,6.5526-21.0619,23.6361c0,16.1474,6.5526,23.1681,21.0619,23.1681
				c12.4031,0,21.0619-6.5526,21.0619-23.6361C287.7578,92.9794,281.2052,85.9588,266.6959,85.9588z M266.6959,125.7423
				c-7.8397,0-11.584-5.1485-11.584-16.4985c0-11.9351,4.9144-16.2644,11.584-16.2644c7.8397,0,11.584,5.1485,11.584,16.4985
				C278.2799,121.4129,273.3655,125.7423,266.6959,125.7423z"/>
			<path fill="#616D87" d="M215.2113,132.7629h9.3608V97.6598c3.3933-1.8722,9.0098-3.3933,16.3815-3.5103v-8.0737
				c-14.8603,0-25.7423,6.9036-25.7423,6.9036V132.7629z"/>
			<path fill="#616D87" d="M318.7655,107.8397c6.0846-7.9567,11.116-15.3284,13.9242-21.8809h-9.7119
				c-3.2763,6.9036-7.2546,13.2222-11.8181,18.7217h-7.0206V67.2371h-9.3608v65.5258h9.3608V111.701h7.0206
				c4.5634,5.6165,9.0098,12.4031,13.5732,21.0619h9.8289C330.1155,123.8701,325.0841,115.4454,318.7655,107.8397z"/>
		</g>
	</g>
</g>
</svg>
