<?xml version="1.0" encoding="utf-8"?>
<!-- Generator: Adobe Illustrator 18.1.1, SVG Export Plug-In . SVG Version: 6.00 Build 0)  -->
<svg version="1.1"
	 id="svg2" xmlns:dc="http://purl.org/dc/elements/1.1/" xmlns:cc="http://creativecommons.org/ns#" xmlns:rdf="http://www.w3.org/1999/02/22-rdf-syntax-ns#" xmlns:svg="http://www.w3.org/2000/svg"
	 xmlns="http://www.w3.org/2000/svg" xmlns:xlink="http://www.w3.org/1999/xlink" x="0px" y="0px" width="800px" height="308px"
	 viewBox="-679 -53 800 308" enable-background="new -679 -53 800 308" xml:space="preserve">
<path fill="#201C1D" d="M-419.34,61.33c-15.53,0-32.86,5.98-36.49,25.67c-0.39,2.09,1,3.09,2.33,3.39l15.91,1.91
	c1.47-0.07,2.47-1.68,2.76-3.18c1.36-6.78,6.94-9.97,13.15-9.97c3.36,0,7.13,1.15,9.12,4.24c2.28,3.44,2.12,8.12,2.12,12.09v2.33
	c-9.46,1.09-21.91,1.74-30.76,5.73c-10.22,4.54-17.4,13.78-17.4,27.37c0,17.41,10.66,26.1,24.4,26.1c11.6,0,18-2.72,26.94-12.09
	c2.97,4.41,3.92,6.42,9.34,11.03c1.21,0.65,2.74,0.59,3.82-0.42v0.21c3.26-2.97,9.18-8.38,12.52-11.24c1.33-1.11,1.04-2.94,0-4.46
	c-2.98-4.22-6.15-7.63-6.15-15.49v-26.1c0-11.05,0.94-21.24-7-28.85C-400.99,63.44-411.42,61.33-419.34,61.33z M-205.49,61.33
	c-15.53,0-32.85,5.98-36.49,25.67c-0.39,2.09,0.99,3.09,2.33,3.39l15.91,1.91c1.47-0.07,2.48-1.68,2.76-3.18
	c1.36-6.78,6.94-9.97,13.15-9.97c3.37,0,7.13,1.15,9.12,4.24c2.27,3.44,1.91,8.12,1.91,12.09v2.33c-9.46,1.09-21.7,1.74-30.55,5.73
	c-10.22,4.54-17.4,13.78-17.4,27.37c0,17.41,10.67,26.1,24.4,26.1c11.58,0,17.99-2.72,26.94-12.09c2.95,4.41,3.92,6.42,9.34,11.03
	c1.22,0.65,2.74,0.59,3.82-0.42v0.21c3.27-2.97,9.18-8.38,12.52-11.24c1.33-1.11,1.03-2.94,0-4.46c-2.98-4.22-6.15-7.63-6.15-15.49
	v-26.1c0-11.05,0.72-21.24-7.21-28.85C-187.35,63.44-197.56,61.33-205.49,61.33z M-325.78,62.17c-10.03,0-17.48,5.06-21.43,15.91
	h-0.21V66.84c-0.1-1.57-1.38-2.89-2.97-2.97h-15.28c-1.73,0-3.18,1.46-3.18,3.18v85.93c0.13,1.53,1.42,2.86,2.97,2.97h16.34
	c1.74,0,3.18-1.45,3.18-3.18v-45.61c0-9.95-0.48-23.55,11.24-23.55c11.58,0,9.97,13.98,9.97,23.55v45.61c0,1.62,1.33,3.07,2.97,3.18
	h16.34c1.74,0,3.18-1.45,3.18-3.18v-45.61c0-4.88-0.2-11.99,1.49-16.34c1.68-4.35,5.79-7.21,9.76-7.21c4.73,0,8.33,1.65,9.55,7.43
	c0.76,3.44,0.42,12.51,0.42,16.12v45.61c0,1.62,1.33,3.07,2.97,3.18h16.34c1.74,0,3.18-1.45,3.18-3.18V98.45
	c0-9.23,0.93-19.7-4.24-26.94c-4.57-6.5-12.04-9.34-18.88-9.34c-9.6,0-18.53,5.06-22.49,15.91
	C-309.13,67.24-315.58,62.17-325.78,62.17z M-48.06,62.17c-23.61,0-36.7,20.75-36.7,47.52c0,26.59,12.96,47.95,36.7,47.95
	c22.85,0,37.34-20.87,37.34-47.1C-10.72,83.43-23.85,62.17-48.06,62.17z M45.08,62.17c-11.28,0-17.72,5.64-22.28,17.4h-0.21V66.42
	c-0.29-1.33-1.54-2.25-2.97-2.33H4.55c-1.64,0-3.03,1.19-3.18,2.76v85.93c0,1.62,1.33,3.07,2.97,3.18h16.12
	c1.74,0,3.16-1.44,3.18-3.18v-46.25c0-5.8,0.49-11.09,2.76-16.34c1.83-4.16,5.37-6.79,9.34-6.79c11.26,0,10.18,13.72,10.18,23.13
	v46.68c0.16,1.46,1.48,2.66,2.97,2.76h16.34c1.61,0,2.99-1.22,3.18-2.76v-54.1c0-8.32,0.02-19.87-4.24-26.73
	C59.6,64.94,52.37,62.17,45.08,62.17L45.08,62.17z M-150.96,63.66c-1.66,0-2.96,1.32-2.97,3.18v12.31c0.01,1.84,1.27,3.17,2.97,3.18
	h28.01l-32.04,47.31c-1.96,3.05-2.12,6.5-2.12,8.49v12.52c0,1.8,1.96,3.76,3.82,2.76c18.26-9.97,40.14-9.08,56.65-0.21
	c2,1.09,4.03-0.96,4.03-2.76v-13.15c-0.16-1.76-0.85-3.45-2.97-4.67c-9.37-5.39-20.25-7.04-30.55-6.79l27.79-40.74
	c2.57-3.66,4.01-5.87,4.03-7.64V66.84c0-1.83-1.25-3.18-2.97-3.18H-150.96z M-48.06,79.78c5.17,0,8.99,2.31,10.82,8.27
	c2.13,6.88,2.33,15.46,2.33,22.7c0,11.03-0.51,29.28-13.15,29.28c-12.78,0-12.73-22.59-12.73-33.1
	C-60.79,96.46-60.09,79.78-48.06,79.78z M-410.65,111.18v3.61c0,6.52,0.23,12.02-2.97,17.82c-2.59,4.72-6.67,7.64-11.24,7.64
	c-6.25,0-9.97-5.07-9.97-12.31C-434.83,113.68-422.44,111.18-410.65,111.18z M-196.79,111.18v3.61c0,6.52,0.23,12.02-2.97,17.82
	c-2.59,4.72-6.65,7.64-11.24,7.64c-6.25,0-9.97-5.07-9.97-12.31C-220.97,113.68-208.59,111.18-196.79,111.18z M-90.92,158.71v12.31
	h8.27v-12.31H-90.92z M-330.87,160.83v87.62h7.64v-7.85c1.63,3.11,3.48,5.43,5.73,7c2.24,1.57,4.81,2.33,7.64,2.33
	c5.61,0,10.45-2.87,14.64-8.7c4.19-5.83,6.36-14.29,6.36-25.04c0-7.04-0.9-12.88-2.76-17.82c-1.85-4.94-4.33-8.6-7.43-11.03
	c-3.1-2.42-6.61-3.82-10.4-3.82c-2.7,0-5.23,0.71-7.43,2.12c-2.21,1.41-3.99,3.71-5.73,6.58v-31.4H-330.87z M-252.37,181.41
	c-5.76,0-10.33,1.7-13.58,5.09c-3.25,3.38-4.88,7.74-4.88,13.15c0,3.14,0.71,5.8,1.91,8.27c1.2,2.47,2.93,4.47,5.09,5.94
	c2.17,1.47,6.51,3.4,12.94,5.52c4.45,1.43,7.11,2.65,8.27,3.61c1.68,1.39,2.55,3.22,2.55,5.73c0,2.91-1.01,5.33-2.97,7.21
	c-1.96,1.89-4.69,2.76-8.27,2.76c-3.58,0-6.53-1-8.7-3.18c-2.17-2.18-3.33-5.49-3.82-9.97l-8.27,1.7
	c1.87,13.61,8.66,20.37,20.37,20.37c6.25,0,11.03-1.77,14.64-5.52c3.61-3.75,5.52-8.79,5.52-14.85c0-3.27-0.58-6.11-1.7-8.49
	c-1.12-2.37-2.66-4.14-4.67-5.52c-2.02-1.37-6.51-3.2-13.37-5.52c-4.98-1.74-7.9-3.02-8.91-3.82c-1.69-1.34-2.55-3.17-2.55-5.52
	c0-2.38,0.79-4.41,2.55-5.94c1.76-1.52,4.47-2.33,8.06-2.33c6.33,0,9.86,3.47,10.61,10.4l8.06-1.27c-0.56-4.38-1.51-7.83-2.97-10.18
	c-1.46-2.35-3.62-4.33-6.36-5.73C-245.58,181.93-248.74,181.41-252.37,181.41z M-201.67,181.41c-6.63,0-12.23,2.74-16.55,8.49
	c-4.32,5.75-6.36,14.09-6.36,25.04c0,10.54,2.08,18.8,6.36,24.4c4.28,5.59,9.84,8.27,16.76,8.27c5.5,0,10.07-1.65,13.79-5.09
	c3.73-3.44,6.43-8.51,7.85-15.28l-8.49-1.49c-2.44,8.68-6.94,12.93-13.15,12.94c-3.96,0-7.2-1.69-9.97-5.3
	c-2.77-3.63-4.33-9-4.67-16.12h36.49v-2.97c0-10.71-2.14-18.74-6.36-24.4C-190.2,184.24-195.34,181.41-201.67,181.41z
	 M-151.38,181.41c-1.98,0-3.72,0.67-5.3,2.12c-1.59,1.45-3.4,4.45-5.3,8.91v-9.76h-7.43v63.44h8.27v-33.1
	c0-4.62,0.43-9.05,1.49-13.15c0.6-2.35,1.72-4.21,3.18-5.52c1.46-1.31,3.12-1.91,4.88-1.91c1.95,0,3.88,0.78,5.94,2.33l2.76-9.97
	C-145.78,182.5-148.61,181.41-151.38,181.41z M-49.97,181.41c-6.55,0-11.95,2.76-16.12,8.27c-4.17,5.51-6.36,13.8-6.36,24.82
	c0,10.94,2.23,19.23,6.36,24.82c4.14,5.59,9.3,8.27,15.7,8.27c5.28,0,9.82-1.96,13.58-5.94c3.77-3.98,6.06-9.83,7-17.4l-8.06-1.27
	c-0.6,5.41-2.01,9.3-4.24,11.88c-2.23,2.57-4.92,3.82-8.06,3.82c-4.01,0-7.41-1.87-9.97-5.73c-2.56-3.86-3.82-10.03-3.82-18.67
	c0-8.36,1.36-14.4,4.03-18.25c2.67-3.84,6.1-5.94,10.18-5.94c2.73,0,5.06,1.06,7,3.18c1.96,2.12,3.25,5.48,4.03,9.76l8.06-1.7
	c-0.97-6.69-3.11-11.72-6.58-15.06C-40.71,182.94-44.92,181.41-49.97,181.41z M-2.66,181.41c-6.63,0-12.22,2.74-16.55,8.49
	c-4.32,5.75-6.36,14.09-6.36,25.04c0,10.54,2.08,18.8,6.36,24.4c4.29,5.59,9.84,8.27,16.76,8.27c5.49,0,10.06-1.65,13.79-5.09
	c3.72-3.44,6.42-8.51,7.85-15.28l-8.49-1.49c-2.44,8.68-6.74,12.93-12.94,12.94c-3.96,0-7.41-1.69-10.18-5.3
	c-2.77-3.63-4.33-9-4.67-16.12h36.49v-2.97c0-10.71-2.14-18.74-6.36-24.4C8.82,184.24,3.67,181.41-2.66,181.41z M46.35,181.41
	c-5.76,0-10.33,1.7-13.58,5.09c-3.26,3.38-4.88,7.74-4.88,13.15c0,3.14,0.5,5.8,1.7,8.27c1.19,2.47,2.92,4.47,5.09,5.94
	c2.17,1.47,6.51,3.4,12.94,5.52c4.45,1.43,7.33,2.65,8.49,3.61c1.68,1.39,2.55,3.22,2.55,5.73c0,2.91-1.01,5.33-2.97,7.21
	c-1.96,1.89-4.7,2.76-8.27,2.76c-3.59,0-6.53-1-8.7-3.18c-2.16-2.18-3.55-5.49-4.03-9.97l-8.27,1.7
	c1.87,13.61,8.65,20.37,20.37,20.37c6.25,0,11.24-1.77,14.85-5.52c3.61-3.75,5.52-8.79,5.52-14.85c0-3.27-0.58-6.12-1.7-8.49
	c-1.12-2.37-2.86-4.14-4.88-5.52c-2.01-1.37-6.3-3.2-13.15-5.52c-4.98-1.74-8.12-3.02-9.12-3.82c-1.69-1.34-2.55-3.17-2.55-5.52
	c0-2.38,1-4.42,2.76-5.94s4.48-2.33,8.06-2.33c6.32,0,9.86,3.47,10.61,10.4l8.06-1.27c-0.56-4.38-1.5-7.83-2.97-10.18
	c-1.46-2.35-3.62-4.33-6.36-5.73C53.15,181.93,49.98,181.41,46.35,181.41z M-142.9,182.68l18.46,63.44h7.85l18.46-63.44h-8.49
	l-10.82,38.83c-1.31,4.7-2.47,8.75-3.18,12.09c-0.9-4.22-1.77-8.64-2.97-12.94l-10.61-37.98H-142.9z M-90.92,182.68v63.44h8.27
	v-63.44H-90.92z M-362.91,183.53c-6.57,0-11.85,2.95-16.12,8.7c-4.28,5.75-6.58,14.09-6.58,25.04c0,10.54,2.12,18.6,6.36,24.19
	c4.24,5.59,9.9,8.49,16.76,8.49c5.44,0,9.89-1.86,13.58-5.3c3.68-3.44,6.23-8.51,7.64-15.28l-8.27-1.27
	c-2.41,8.68-6.79,12.93-12.94,12.94c-3.93,0-7.23-1.69-9.97-5.3c-2.74-3.63-4.33-9-4.67-16.12h36.07l0.21-2.97
	c0-10.71-2.18-18.96-6.36-24.61C-351.4,186.36-356.65,183.53-362.91,183.53z M-456.05,185.02l14.85,63.44h8.7l9.76-48.8l1.7,10.82
	l7.85,37.98h8.49l15.06-63.44h-7.85l-8.27,36.7l-2.76,12.31l-2.55-12.31l-7.21-36.7h-8.49l-7.64,37.13l-2.55,13.15l-2.97-13.58
	l-7.64-36.7H-456.05z M72.02,185.65v2.97h8.06v21.22h3.18v-21.22h8.06v-2.97H72.02z M94.51,185.65v24.19h2.97v-20.58l7,20.58h2.97
	l7-20.16v20.16h3.18v-24.19h-4.46l-5.73,16.97c-0.58,1.7-0.99,2.92-1.27,3.82l-1.27-3.61l-5.73-17.19H94.51z M-201.88,190.11
	c4.12,0,7.52,2,10.18,5.94c1.83,2.71,3.02,6.81,3.39,12.31h-27.37c0.26-5.57,1.83-9.87,4.46-13.15
	C-208.59,191.91-205.58,190.11-201.88,190.11z M-2.87,190.11c4.11,0,7.52,2,10.18,5.94c1.83,2.71,3.02,6.81,3.39,12.31h-27.37
	c0.26-5.57,1.83-9.87,4.46-13.15C-9.59,191.91-6.58,190.11-2.87,190.11z M-362.91,192.44c4.07,0,7.34,2,9.97,5.94
	c1.81,2.71,3.02,6.81,3.39,12.31h-26.94c0.26-5.57,1.64-10.08,4.24-13.37C-369.65,194.04-366.58,192.44-362.91,192.44z
	 M-310.29,192.44c3.68,0,6.81,2.04,9.34,5.94c2.53,3.9,3.61,9.92,3.61,18.25c0,8.12-1.2,14.17-3.82,18.25s-5.74,6.15-9.12,6.15
	c-2.48,0-4.75-0.84-6.79-2.55c-2.05-1.71-3.55-4.17-4.67-7.43c-1.11-3.27-1.7-8.29-1.7-14.85c0-7.73,1.38-13.53,4.03-17.61
	C-316.76,194.51-313.67,192.44-310.29,192.44z"/>
<path fill="#F7A80D" d="M-574.97,125.19l-31.61,13.58l29.28,12.52l33.95-12.52L-574.97,125.19z M-622.49,142.16l-1.06,61.1
	l46.25,20.37v-63.44L-622.49,142.16z M-527.44,142.16l-41.8,15.91v59.83l41.8-16.97V142.16z M-477.58-47.94l-31.82,13.58
	l29.49,12.52l33.95-12.52L-477.58-47.94z M-521.71-29.9v61.1l39.46,11.46l1.27-55.59L-521.71-29.9z M-433.45-26.51l-37.34,15.91
	v60.04l37.34-16.97V-26.51z M-627.05,38.06l-31.61,13.58l29.28,12.52l33.95-12.52L-627.05,38.06z M-674.58,55.03l-1.06,61.1
	l46.25,20.37V73.07L-674.58,55.03z M-579.53,55.03l-41.8,15.91v59.83l41.8-16.97V55.03z M-525.21,35.8l-31.61,13.58l29.28,12.52
	l33.95-12.52L-525.21,35.8z M-572.74,52.78l-1.06,61.1l46.25,20.37V70.81L-572.74,52.78z M-477.69,52.78l-41.8,15.91v59.83
	l41.8-16.97V52.78z M-378.11-47.94l-31.61,13.58l29.28,12.52l33.95-12.52L-378.11-47.94z M-425.64-30.96l-1.06,61.1l46.25,20.37
	v-63.44L-425.64-30.96z M-330.59-30.96l-41.8,15.91v59.83l41.8-16.97V-30.96z"/>
</svg>
