<svg width="1030" height="730" viewBox="0 0 1030 730" version="1.1" xmlns="http://www.w3.org/2000/svg" xmlns:xlink="http://www.w3.org/1999/xlink">
<title>Frame</title>
<desc>Created using Figma</desc>
<g id="Canvas" transform="translate(-6862 -4913)">
<clipPath id="clip-0" clip-rule="evenodd">
<path d="M 6862 4913L 7892 4913L 7892 5643L 6862 5643L 6862 4913Z" fill="#FFFFFF"/>
</clipPath>
<g id="Frame" clip-path="url(#clip-0)">
<path d="M 6862 4913L 7892 4913L 7892 5643L 6862 5643L 6862 4913Z"/>
<clipPath id="clip-1" clip-rule="evenodd">
<path d="M 6902 4943L 7862 4943L 7862 5543L 6902 5543L 6902 4943Z" fill="#FFFFFF"/>
</clipPath>
<g id="Chart area" clip-path="url(#clip-1)">
<g id="Group">
<g id="Vector">
<use xlink:href="#path0_stroke" transform="translate(6962 4943)" fill="#7BBAB6" fill-opacity="0.6"/>
</g>
<g id="Vector">
<use xlink:href="#path0_stroke" transform="translate(7022 4943)" fill="#7BBAB6" fill-opacity="0.6"/>
</g>
<g id="Vector">
<use xlink:href="#path0_stroke" transform="translate(7082 4943)" fill="#7BBAB6" fill-opacity="0.6"/>
</g>
<g id="Vector">
<use xlink:href="#path0_stroke" transform="translate(7142 4943)" fill="#7BBAB6" fill-opacity="0.6"/>
</g>
<g id="Vector">
<use xlink:href="#path0_stroke" transform="translate(7202 4943)" fill="#7BBAB6" fill-opacity="0.6"/>
</g>
<g id="Vector">
<use xlink:href="#path0_stroke" transform="translate(7262 4943)" fill="#7BBAB6" fill-opacity="0.6"/>
</g>
<g id="Vector">
<use xlink:href="#path0_stroke" transform="translate(7322 4943)" fill="#7BBAB6" fill-opacity="0.6"/>
</g>
<g id="Vector">
<use xlink:href="#path0_stroke" transform="translate(7382 4943)" fill="#7BBAB6" fill-opacity="0.6"/>
</g>
<g id="Vector">
<use xlink:href="#path0_stroke" transform="translate(7442 4943)" fill="#7BBAB6" fill-opacity="0.6"/>
</g>
<g id="Vector">
<use xlink:href="#path0_stroke" transform="translate(7502 4943)" fill="#7BBAB6" fill-opacity="0.6"/>
</g>
<g id="Vector">
<use xlink:href="#path0_stroke" transform="translate(7562 4943)" fill="#7BBAB6" fill-opacity="0.6"/>
</g>
<g id="Vector">
<use xlink:href="#path0_stroke" transform="translate(7622 4943)" fill="#7BBAB6" fill-opacity="0.6"/>
</g>
<g id="Vector">
<use xlink:href="#path0_stroke" transform="translate(7682 4943)" fill="#7BBAB6" fill-opacity="0.6"/>
</g>
<g id="Vector">
<use xlink:href="#path0_stroke" transform="translate(7742 4943)" fill="#7BBAB6" fill-opacity="0.6"/>
</g>
<g id="Vector">
<use xlink:href="#path0_stroke" transform="translate(7802 4943)" fill="#7BBAB6" fill-opacity="0.6"/>
</g>
<g id="Vector">
<use xlink:href="#path0_stroke" transform="translate(7862 4943)" fill="#7BBAB6" fill-opacity="0.6"/>
</g>
<g id="Vector 2">
<use xlink:href="#path1_stroke" transform="translate(6902 5503)" fill="#7BBAB6" fill-opacity="0.6"/>
</g>
<g id="Vector 2.1">
<use xlink:href="#path1_stroke" transform="translate(6902 5463)" fill="#7BBAB6" fill-opacity="0.6"/>
</g>
<g id="Vector 2.2">
<use xlink:href="#path1_stroke" transform="translate(6902 5423)" fill="#7BBAB6" fill-opacity="0.6"/>
</g>
<g id="Vector 2.3">
<use xlink:href="#path1_stroke" transform="translate(6902 5383)" fill="#7BBAB6" fill-opacity="0.6"/>
</g>
<g id="Vector 2.4">
<use xlink:href="#path1_stroke" transform="translate(6902 5343)" fill="#7BBAB6" fill-opacity="0.6"/>
</g>
<g id="Vector 2.5">
<use xlink:href="#path1_stroke" transform="translate(6902 5303)" fill="#7BBAB6" fill-opacity="0.6"/>
</g>
<g id="Vector 2.6">
<use xlink:href="#path1_stroke" transform="translate(6902 5263)" fill="#7BBAB6" fill-opacity="0.6"/>
</g>
<g id="Vector 2.7">
<use xlink:href="#path1_stroke" transform="translate(6902 5223)" fill="#7BBAB6" fill-opacity="0.6"/>
</g>
<g id="Vector 2.8">
<use xlink:href="#path1_stroke" transform="translate(6902 5183)" fill="#7BBAB6" fill-opacity="0.6"/>
</g>
<g id="Vector 2.9">
<use xlink:href="#path1_stroke" transform="translate(6902 5143)" fill="#7BBAB6" fill-opacity="0.6"/>
</g>
<g id="Vector 2.10">
<use xlink:href="#path1_stroke" transform="translate(6902 5103)" fill="#7BBAB6" fill-opacity="0.6"/>
</g>
<g id="Vector 2.11">
<use xlink:href="#path1_stroke" transform="translate(6902 5063)" fill="#7BBAB6" fill-opacity="0.6"/>
</g>
<g id="Vector 2.12">
<use xlink:href="#path1_stroke" transform="translate(6902 5023)" fill="#7BBAB6" fill-opacity="0.6"/>
</g>
<g id="Vector 2.13">
<use xlink:href="#path1_stroke" transform="translate(6902 4983)" fill="#7BBAB6" fill-opacity="0.6"/>
</g>
<g id="Vector 2.14">
<use xlink:href="#path1_stroke" transform="translate(6902 4943)" fill="#7BBAB6" fill-opacity="0.6"/>
</g>
</g>
<g id="Vector">
<use xlink:href="#path2_stroke" transform="translate(6963 5066.5)"/>
</g>
</g>
<g id="Vector">
<use xlink:href="#path3_fill" transform="translate(6902 4943)" fill="url(#paint32_linear)"/>
<use xlink:href="#path4_stroke" transform="translate(6902 4943)"/>
</g>
<g id="Chart line 2" filter="url(#filter0_d)">
<use xlink:href="#path5_stroke" transform="translate(6902 4944)" stroke="#1A53AB" stroke-opacity="0.7"/>
</g>
<g id="Chart line 1" filter="url(#filter1_d)">
<use xlink:href="#path6_stroke" transform="translate(6902 4944)" stroke="#267CFF" stroke-opacity="0.7"/>
</g>
<g id="Axes">
<g id="Vector" filter="url(#filter2_d)">
<use xlink:href="#path7_stroke" transform="translate(6902 4943)" fill="#5B78A4" fill-opacity="0.8"/>
</g>
<g id="Vector 2" filter="url(#filter3_d)">
<use xlink:href="#path8_stroke" transform="matrix(-1 1.22465e-16 -1.22465e-16 -1 7862 5543)" fill="#5B78A4" fill-opacity="0.8"/>
</g>
</g>
<g id="Vector" filter="url(#filter4_d)">
<use xlink:href="#path9_stroke" transform="translate(7082 5544)" fill="#5B78A4" fill-opacity="0.8"/>
</g>
<g id="Vector" filter="url(#filter5_d)">
<use xlink:href="#path9_stroke" transform="translate(6962 5544)" fill="#5B78A4" fill-opacity="0.8"/>
</g>
<g id="Vector" filter="url(#filter6_d)">
<use xlink:href="#path9_stroke" transform="translate(7202 5544)" fill="#5B78A4" fill-opacity="0.8"/>
</g>
<g id="Vector" filter="url(#filter7_d)">
<use xlink:href="#path9_stroke" transform="translate(7322 5544)" fill="#5B78A4" fill-opacity="0.8"/>
</g>
<g id="Vector" filter="url(#filter8_d)">
<use xlink:href="#path9_stroke" transform="translate(7442 5544)" fill="#5B78A4" fill-opacity="0.8"/>
</g>
<g id="Vector" filter="url(#filter9_d)">
<use xlink:href="#path9_stroke" transform="translate(7562 5544)" fill="#5B78A4" fill-opacity="0.8"/>
</g>
<g id="Vector" filter="url(#filter10_d)">
<use xlink:href="#path9_stroke" transform="translate(7682 5544)" fill="#5B78A4" fill-opacity="0.8"/>
</g>
<g id="Vector" filter="url(#filter11_d)">
<use xlink:href="#path9_stroke" transform="translate(7802 5544)" fill="#5B78A4" fill-opacity="0.8"/>
</g>
<g id="2011">
<use xlink:href="#path10_fill" transform="translate(6921 5563)" fill="#5B78A4" fill-opacity="0.8"/>
</g>
<g id="2012">
<use xlink:href="#path11_fill" transform="translate(7041 5563)" fill="#5B78A4" fill-opacity="0.8"/>
</g>
<g id="2018">
<use xlink:href="#path12_fill" transform="translate(7761 5563)" fill="#5B78A4" fill-opacity="0.8"/>
</g>
<g id="2017">
<use xlink:href="#path13_fill" transform="translate(7641 5563)" fill="#5B78A4" fill-opacity="0.8"/>
</g>
<g id="2016">
<use xlink:href="#path14_fill" transform="translate(7521 5563)" fill="#5B78A4" fill-opacity="0.8"/>
</g>
<g id="2015">
<use xlink:href="#path15_fill" transform="translate(7401 5563)" fill="#5B78A4" fill-opacity="0.8"/>
</g>
<g id="2014">
<use xlink:href="#path16_fill" transform="translate(7281 5563)" fill="#5B78A4" fill-opacity="0.8"/>
</g>
<g id="2013">
<use xlink:href="#path17_fill" transform="translate(7161 5563)" fill="#5B78A4" fill-opacity="0.8"/>
</g>
</g>
</g>
<defs>
<filter id="filter0_d" filterUnits="userSpaceOnUse" x="6897" y="4939" width="930" height="610" color-interpolation-filters="sRGB">
<feFlood flood-opacity="0" result="BackgroundImageFix"/>
<feColorMatrix in="SourceAlpha" type="matrix" values="0 0 0 0 0 0 0 0 0 0 0 0 0 0 0 0 0 0 255 0"/>
<feOffset dx="0" dy="0"/>
<feGaussianBlur stdDeviation="2"/>
<feColorMatrix type="matrix" values="0 0 0 0 0 0 0 0 0 0.384314 0 0 0 0 1 0 0 0 0.5 0"/>
<feBlend mode="normal" in2="BackgroundImageFix" result="effect1_dropShadow"/>
<feBlend mode="normal" in="SourceGraphic" in2="effect1_dropShadow" result="shape"/>
</filter>
<filter id="filter1_d" filterUnits="userSpaceOnUse" x="6897" y="4939" width="930" height="610" color-interpolation-filters="sRGB">
<feFlood flood-opacity="0" result="BackgroundImageFix"/>
<feColorMatrix in="SourceAlpha" type="matrix" values="0 0 0 0 0 0 0 0 0 0 0 0 0 0 0 0 0 0 255 0"/>
<feOffset dx="0" dy="0"/>
<feGaussianBlur stdDeviation="2"/>
<feColorMatrix type="matrix" values="0 0 0 0 0 0 0 0 0 0.384314 0 0 0 0 1 0 0 0 0.5 0"/>
<feBlend mode="normal" in2="BackgroundImageFix" result="effect1_dropShadow"/>
<feBlend mode="normal" in="SourceGraphic" in2="effect1_dropShadow" result="shape"/>
</filter>
<filter id="filter2_d" filterUnits="userSpaceOnUse" x="6897" y="4939" width="10" height="619" color-interpolation-filters="sRGB">
<feFlood flood-opacity="0" result="BackgroundImageFix"/>
<feColorMatrix in="SourceAlpha" type="matrix" values="0 0 0 0 0 0 0 0 0 0 0 0 0 0 0 0 0 0 255 0"/>
<feOffset dx="0" dy="0"/>
<feGaussianBlur stdDeviation="2"/>
<feColorMatrix type="matrix" values="0 0 0 0 0 0 0 0 0 0.385714 0 0 0 0 1 0 0 0 0.5 0"/>
<feBlend mode="normal" in2="BackgroundImageFix" result="effect1_dropShadow"/>
<feBlend mode="normal" in="SourceGraphic" in2="effect1_dropShadow" result="shape"/>
</filter>
<filter id="filter3_d" filterUnits="userSpaceOnUse" x="6888" y="5538" width="978" height="10" color-interpolation-filters="sRGB">
<feFlood flood-opacity="0" result="BackgroundImageFix"/>
<feColorMatrix in="SourceAlpha" type="matrix" values="0 0 0 0 0 0 0 0 0 0 0 0 0 0 0 0 0 0 255 0"/>
<feOffset dx="0" dy="0"/>
<feGaussianBlur stdDeviation="2"/>
<feColorMatrix type="matrix" values="0 0 0 0 0 0 0 0 0 0.384314 0 0 0 0 1 0 0 0 0.5 0"/>
<feBlend mode="normal" in2="BackgroundImageFix" result="effect1_dropShadow"/>
<feBlend mode="normal" in="SourceGraphic" in2="effect1_dropShadow" result="shape"/>
</filter>
<filter id="filter4_d" filterUnits="userSpaceOnUse" x="7077" y="5540" width="10" height="27" color-interpolation-filters="sRGB">
<feFlood flood-opacity="0" result="BackgroundImageFix"/>
<feColorMatrix in="SourceAlpha" type="matrix" values="0 0 0 0 0 0 0 0 0 0 0 0 0 0 0 0 0 0 255 0"/>
<feOffset dx="0" dy="0"/>
<feGaussianBlur stdDeviation="2"/>
<feColorMatrix type="matrix" values="0 0 0 0 0 0 0 0 0 0.385714 0 0 0 0 1 0 0 0 0.5 0"/>
<feBlend mode="normal" in2="BackgroundImageFix" result="effect1_dropShadow"/>
<feBlend mode="normal" in="SourceGraphic" in2="effect1_dropShadow" result="shape"/>
</filter>
<filter id="filter5_d" filterUnits="userSpaceOnUse" x="6957" y="5540" width="10" height="27" color-interpolation-filters="sRGB">
<feFlood flood-opacity="0" result="BackgroundImageFix"/>
<feColorMatrix in="SourceAlpha" type="matrix" values="0 0 0 0 0 0 0 0 0 0 0 0 0 0 0 0 0 0 255 0"/>
<feOffset dx="0" dy="0"/>
<feGaussianBlur stdDeviation="2"/>
<feColorMatrix type="matrix" values="0 0 0 0 0 0 0 0 0 0.385714 0 0 0 0 1 0 0 0 0.5 0"/>
<feBlend mode="normal" in2="BackgroundImageFix" result="effect1_dropShadow"/>
<feBlend mode="normal" in="SourceGraphic" in2="effect1_dropShadow" result="shape"/>
</filter>
<filter id="filter6_d" filterUnits="userSpaceOnUse" x="7197" y="5540" width="10" height="27" color-interpolation-filters="sRGB">
<feFlood flood-opacity="0" result="BackgroundImageFix"/>
<feColorMatrix in="SourceAlpha" type="matrix" values="0 0 0 0 0 0 0 0 0 0 0 0 0 0 0 0 0 0 255 0"/>
<feOffset dx="0" dy="0"/>
<feGaussianBlur stdDeviation="2"/>
<feColorMatrix type="matrix" values="0 0 0 0 0 0 0 0 0 0.385714 0 0 0 0 1 0 0 0 0.5 0"/>
<feBlend mode="normal" in2="BackgroundImageFix" result="effect1_dropShadow"/>
<feBlend mode="normal" in="SourceGraphic" in2="effect1_dropShadow" result="shape"/>
</filter>
<filter id="filter7_d" filterUnits="userSpaceOnUse" x="7317" y="5540" width="10" height="27" color-interpolation-filters="sRGB">
<feFlood flood-opacity="0" result="BackgroundImageFix"/>
<feColorMatrix in="SourceAlpha" type="matrix" values="0 0 0 0 0 0 0 0 0 0 0 0 0 0 0 0 0 0 255 0"/>
<feOffset dx="0" dy="0"/>
<feGaussianBlur stdDeviation="2"/>
<feColorMatrix type="matrix" values="0 0 0 0 0 0 0 0 0 0.385714 0 0 0 0 1 0 0 0 0.5 0"/>
<feBlend mode="normal" in2="BackgroundImageFix" result="effect1_dropShadow"/>
<feBlend mode="normal" in="SourceGraphic" in2="effect1_dropShadow" result="shape"/>
</filter>
<filter id="filter8_d" filterUnits="userSpaceOnUse" x="7437" y="5540" width="10" height="27" color-interpolation-filters="sRGB">
<feFlood flood-opacity="0" result="BackgroundImageFix"/>
<feColorMatrix in="SourceAlpha" type="matrix" values="0 0 0 0 0 0 0 0 0 0 0 0 0 0 0 0 0 0 255 0"/>
<feOffset dx="0" dy="0"/>
<feGaussianBlur stdDeviation="2"/>
<feColorMatrix type="matrix" values="0 0 0 0 0 0 0 0 0 0.385714 0 0 0 0 1 0 0 0 0.5 0"/>
<feBlend mode="normal" in2="BackgroundImageFix" result="effect1_dropShadow"/>
<feBlend mode="normal" in="SourceGraphic" in2="effect1_dropShadow" result="shape"/>
</filter>
<filter id="filter9_d" filterUnits="userSpaceOnUse" x="7557" y="5540" width="10" height="27" color-interpolation-filters="sRGB">
<feFlood flood-opacity="0" result="BackgroundImageFix"/>
<feColorMatrix in="SourceAlpha" type="matrix" values="0 0 0 0 0 0 0 0 0 0 0 0 0 0 0 0 0 0 255 0"/>
<feOffset dx="0" dy="0"/>
<feGaussianBlur stdDeviation="2"/>
<feColorMatrix type="matrix" values="0 0 0 0 0 0 0 0 0 0.385714 0 0 0 0 1 0 0 0 0.5 0"/>
<feBlend mode="normal" in2="BackgroundImageFix" result="effect1_dropShadow"/>
<feBlend mode="normal" in="SourceGraphic" in2="effect1_dropShadow" result="shape"/>
</filter>
<filter id="filter10_d" filterUnits="userSpaceOnUse" x="7677" y="5540" width="10" height="27" color-interpolation-filters="sRGB">
<feFlood flood-opacity="0" result="BackgroundImageFix"/>
<feColorMatrix in="SourceAlpha" type="matrix" values="0 0 0 0 0 0 0 0 0 0 0 0 0 0 0 0 0 0 255 0"/>
<feOffset dx="0" dy="0"/>
<feGaussianBlur stdDeviation="2"/>
<feColorMatrix type="matrix" values="0 0 0 0 0 0 0 0 0 0.385714 0 0 0 0 1 0 0 0 0.5 0"/>
<feBlend mode="normal" in2="BackgroundImageFix" result="effect1_dropShadow"/>
<feBlend mode="normal" in="SourceGraphic" in2="effect1_dropShadow" result="shape"/>
</filter>
<filter id="filter11_d" filterUnits="userSpaceOnUse" x="7797" y="5540" width="10" height="27" color-interpolation-filters="sRGB">
<feFlood flood-opacity="0" result="BackgroundImageFix"/>
<feColorMatrix in="SourceAlpha" type="matrix" values="0 0 0 0 0 0 0 0 0 0 0 0 0 0 0 0 0 0 255 0"/>
<feOffset dx="0" dy="0"/>
<feGaussianBlur stdDeviation="2"/>
<feColorMatrix type="matrix" values="0 0 0 0 0 0 0 0 0 0.385714 0 0 0 0 1 0 0 0 0.5 0"/>
<feBlend mode="normal" in2="BackgroundImageFix" result="effect1_dropShadow"/>
<feBlend mode="normal" in="SourceGraphic" in2="effect1_dropShadow" result="shape"/>
</filter>
<linearGradient id="paint32_linear" x1="0" y1="0" x2="1" y2="0" gradientUnits="userSpaceOnUse" gradientTransform="matrix(921 -3.29425e-05 5.25671e-05 1412.97 -2.62836e-05 -406.484)">
<stop offset="0" stop-color="#77A5B5" stop-opacity="0.3"/>
<stop offset="0.710071" stop-color="#77A5B5" stop-opacity="0.13"/>
<stop offset="0.921757" stop-color="#7BBAB6" stop-opacity="0"/>
</linearGradient>
<path id="path0_stroke" d="M 0.25 600L 0.25 0L -0.25 0L -0.25 600L 0.25 600Z"/>
<path id="path1_stroke" d="M 0 0.25L 1000 0.25L 1000 -0.25L 0 -0.25L 0 0.25Z"/>
<path id="path2_stroke" d="M 70.5 0L 70.8002 -0.399836L 70.355 -0.734148L 70.0703 -0.255646L 70.5 0ZM 0 118.5L -0.429703 118.244L -0.677844 118.661L -0.268333 118.922L 0 118.5ZM 130.5 201.5L 130.232 201.922L 130.398 202.028L 130.592 201.992L 130.5 201.5ZM 326 165L 326.092 165.492L 326.374 165.439L 326.471 165.169L 326 165ZM 217.3 109.6L 70.8002 -0.399836L 70.1998 0.399836L 216.7 110.4L 217.3 109.6ZM 70.0703 -0.255646L -0.429703 118.244L 0.429703 118.756L 70.9297 0.255646L 70.0703 -0.255646ZM -0.268333 118.922L 130.232 201.922L 130.768 201.078L 0.268333 118.078L -0.268333 118.922ZM 130.592 201.992L 326.092 165.492L 325.908 164.508L 130.408 201.008L 130.592 201.992ZM 326.471 165.169L 361.471 67.6689L 360.529 67.3311L 325.529 164.831L 326.471 165.169Z"/>
<path id="path3_fill" d="M 60 560L 0 600L 920.5 600L 920.5 0L 840 60L 837 60L 799 60L 720.5 202.5L 640.5 280L 599.5 300.5L 561 300.5L 539.5 360L 420.5 400L 300 479.5L 240.5 440.5L 180 520L 60 560Z"/>
<path id="path4_stroke" d="M 0 600L -0.27735 599.584L -1.65139 600.5L 0 600.5L 0 600ZM 60 560L 59.8419 559.526L 59.7784 559.547L 59.7226 559.584L 60 560ZM 180 520L 180.158 520.474L 180.304 520.426L 180.398 520.303L 180 520ZM 240.5 440.5L 240.774 440.082L 240.384 439.826L 240.102 440.197L 240.5 440.5ZM 300 479.5L 299.726 479.918L 300.001 480.098L 300.275 479.917L 300 479.5ZM 420.5 400L 420.341 399.526L 420.279 399.547L 420.225 399.583L 420.5 400ZM 539.5 360L 539.659 360.474L 539.888 360.397L 539.97 360.17L 539.5 360ZM 561 300.5L 561 300L 560.649 300L 560.53 300.33L 561 300.5ZM 599.5 300.5L 599.5 301L 599.618 301L 599.724 300.947L 599.5 300.5ZM 640.5 280L 640.724 280.447L 640.793 280.413L 640.848 280.359L 640.5 280ZM 720.5 202.5L 720.848 202.859L 720.902 202.807L 720.938 202.741L 720.5 202.5ZM 799 60L 799 59.5L 798.705 59.5L 798.562 59.7587L 799 60ZM 840 60L 840 60.5L 840.166 60.5L 840.299 60.4009L 840 60ZM 920.5 0L 921 0L 921 -0.996276L 920.201 -0.400895L 920.5 0ZM 920.5 600L 920.5 600.5L 921 600.5L 921 600L 920.5 600ZM 0.27735 600.416L 60.2774 560.416L 59.7226 559.584L -0.27735 599.584L 0.27735 600.416ZM 60.1581 560.474L 180.158 520.474L 179.842 519.526L 59.8419 559.526L 60.1581 560.474ZM 180.398 520.303L 240.898 440.803L 240.102 440.197L 179.602 519.697L 180.398 520.303ZM 240.226 440.918L 299.726 479.918L 300.274 479.082L 240.774 440.082L 240.226 440.918ZM 300.275 479.917L 420.775 400.417L 420.225 399.583L 299.725 479.083L 300.275 479.917ZM 420.659 400.474L 539.659 360.474L 539.341 359.526L 420.341 399.526L 420.659 400.474ZM 539.97 360.17L 561.47 300.67L 560.53 300.33L 539.03 359.83L 539.97 360.17ZM 561 301L 599.5 301L 599.5 300L 561 300L 561 301ZM 599.724 300.947L 640.724 280.447L 640.276 279.553L 599.276 300.053L 599.724 300.947ZM 640.848 280.359L 720.848 202.859L 720.152 202.141L 640.152 279.641L 640.848 280.359ZM 720.938 202.741L 799.438 60.2413L 798.562 59.7587L 720.062 202.259L 720.938 202.741ZM 799 60.5L 837 60.5L 837 59.5L 799 59.5L 799 60.5ZM 837 60.5L 840 60.5L 840 59.5L 837 59.5L 837 60.5ZM 840.299 60.4009L 920.799 0.400895L 920.201 -0.400895L 839.701 59.5991L 840.299 60.4009ZM 920 0L 920 600L 921 600L 921 0L 920 0ZM 920.5 599.5L 0 599.5L 0 600.5L 920.5 600.5L 920.5 599.5Z"/>
<path id="path5_stroke" d="M 60 560L 59.8419 559.526L 59.7784 559.547L 59.7226 559.584L 60 560ZM 180 520L 180.158 520.474L 180.304 520.426L 180.398 520.303L 180 520ZM 240.5 440.5L 240.774 440.082L 240.384 439.826L 240.102 440.197L 240.5 440.5ZM 300 479.5L 299.726 479.918L 300.001 480.098L 300.275 479.917L 300 479.5ZM 420.5 400L 420.341 399.526L 420.279 399.547L 420.225 399.583L 420.5 400ZM 539.5 360L 539.659 360.474L 539.888 360.397L 539.97 360.17L 539.5 360ZM 561 300.5L 561 300L 560.649 300L 560.53 300.33L 561 300.5ZM 599.5 300.5L 599.5 301L 599.618 301L 599.724 300.947L 599.5 300.5ZM 640.5 280L 640.724 280.447L 640.793 280.413L 640.848 280.359L 640.5 280ZM 720.5 202.5L 720.848 202.859L 720.902 202.807L 720.938 202.741L 720.5 202.5ZM 799 60L 799 59.5L 798.705 59.5L 798.562 59.7587L 799 60ZM 840 60L 840 60.5L 840.166 60.5L 840.299 60.4009L 840 60ZM 0.27735 600.416L 60.2774 560.416L 59.7226 559.584L -0.27735 599.584L 0.27735 600.416ZM 60.1581 560.474L 180.158 520.474L 179.842 519.526L 59.8419 559.526L 60.1581 560.474ZM 180.398 520.303L 240.898 440.803L 240.102 440.197L 179.602 519.697L 180.398 520.303ZM 240.226 440.918L 299.726 479.918L 300.274 479.082L 240.774 440.082L 240.226 440.918ZM 300.275 479.917L 420.775 400.417L 420.225 399.583L 299.725 479.083L 300.275 479.917ZM 420.659 400.474L 539.659 360.474L 539.341 359.526L 420.341 399.526L 420.659 400.474ZM 539.97 360.17L 561.47 300.67L 560.53 300.33L 539.03 359.83L 539.97 360.17ZM 561 301L 599.5 301L 599.5 300L 561 300L 561 301ZM 599.724 300.947L 640.724 280.447L 640.276 279.553L 599.276 300.053L 599.724 300.947ZM 640.848 280.359L 720.848 202.859L 720.152 202.141L 640.152 279.641L 640.848 280.359ZM 720.938 202.741L 799.438 60.2413L 798.562 59.7587L 720.062 202.259L 720.938 202.741ZM 799 60.5L 837 60.5L 837 59.5L 799 59.5L 799 60.5ZM 837 60.5L 840 60.5L 840 59.5L 837 59.5L 837 60.5ZM 840.299 60.4009L 920.799 0.400895L 920.201 -0.400895L 839.701 59.5991L 840.299 60.4009Z"/>
<path id="path6_stroke" d="M 60 560L 59.8419 559.526L 59.7784 559.547L 59.7226 559.584L 60 560ZM 180 520L 180.158 520.474L 180.304 520.426L 180.398 520.303L 180 520ZM 240.5 440.5L 240.774 440.082L 240.384 439.826L 240.102 440.197L 240.5 440.5ZM 300 479.5L 299.726 479.918L 300.001 480.098L 300.275 479.917L 300 479.5ZM 420.5 400L 420.341 399.526L 420.279 399.547L 420.225 399.583L 420.5 400ZM 539.5 360L 539.659 360.474L 539.888 360.397L 539.97 360.17L 539.5 360ZM 561 300.5L 561 300L 560.649 300L 560.53 300.33L 561 300.5ZM 599.5 300.5L 599.5 301L 599.618 301L 599.724 300.947L 599.5 300.5ZM 640.5 280L 640.724 280.447L 640.793 280.413L 640.848 280.359L 640.5 280ZM 720.5 202.5L 720.848 202.859L 720.902 202.807L 720.938 202.741L 720.5 202.5ZM 799 60L 799 59.5L 798.705 59.5L 798.562 59.7587L 799 60ZM 840 60L 840 60.5L 840.166 60.5L 840.299 60.4009L 840 60ZM 0.27735 600.416L 60.2774 560.416L 59.7226 559.584L -0.27735 599.584L 0.27735 600.416ZM 60.1581 560.474L 180.158 520.474L 179.842 519.526L 59.8419 559.526L 60.1581 560.474ZM 180.398 520.303L 240.898 440.803L 240.102 440.197L 179.602 519.697L 180.398 520.303ZM 240.226 440.918L 299.726 479.918L 300.274 479.082L 240.774 440.082L 240.226 440.918ZM 300.275 479.917L 420.775 400.417L 420.225 399.583L 299.725 479.083L 300.275 479.917ZM 420.659 400.474L 539.659 360.474L 539.341 359.526L 420.341 399.526L 420.659 400.474ZM 539.97 360.17L 561.47 300.67L 560.53 300.33L 539.03 359.83L 539.97 360.17ZM 561 301L 599.5 301L 599.5 300L 561 300L 561 301ZM 599.724 300.947L 640.724 280.447L 640.276 279.553L 599.276 300.053L 599.724 300.947ZM 640.848 280.359L 720.848 202.859L 720.152 202.141L 640.152 279.641L 640.848 280.359ZM 720.938 202.741L 799.438 60.2413L 798.562 59.7587L 720.062 202.259L 720.938 202.741ZM 799 60.5L 837 60.5L 837 59.5L 799 59.5L 799 60.5ZM 837 60.5L 840 60.5L 840 59.5L 837 59.5L 837 60.5ZM 840.299 60.4009L 920.799 0.400895L 920.201 -0.400895L 839.701 59.5991L 840.299 60.4009Z"/>
<path id="path7_stroke" d="M 1 611L 1 0L -1 0L -1 611L 1 611Z"/>
<path id="path8_stroke" d="M 0 1L 970 1L 970 -1L 0 -1L 0 1Z"/>
<path id="path9_stroke" d="M 1 19L 1 0L -1 0L -1 19L 1 19Z"/>
<path id="path10_fill" d="M 18.8965 33L 2.12695 33L 2.12695 30.6621L 10.9863 20.8184C 12.2988 19.3301 13.2012 18.123 13.6934 17.1973C 14.1973 16.2598 14.4492 15.293 14.4492 14.2969C 14.4492 12.9609 14.0449 11.8652 13.2363 11.0098C 12.4277 10.1543 11.3496 9.72656 10.002 9.72656C 8.38477 9.72656 7.125 10.1895 6.22266 11.1152C 5.33203 12.0293 4.88672 13.3066 4.88672 14.9473L 1.63477 14.9473C 1.63477 12.5918 2.39062 10.6875 3.90234 9.23438C 5.42578 7.78125 7.45898 7.05469 10.002 7.05469C 12.3809 7.05469 14.2617 7.68164 15.6445 8.93555C 17.0273 10.1777 17.7188 11.8359 17.7188 13.9102C 17.7188 16.4297 16.1133 19.4297 12.9023 22.9102L 6.04688 30.3457L 18.8965 30.3457L 18.8965 33ZM 38.3906 22.084C 38.3906 25.8926 37.7402 28.7227 36.4395 30.5742C 35.1387 32.4258 33.1055 33.3516 30.3398 33.3516C 27.6094 33.3516 25.5879 32.4492 24.2754 30.6445C 22.9629 28.8281 22.2832 26.1211 22.2363 22.5234L 22.2363 18.1816C 22.2363 14.4199 22.8867 11.625 24.1875 9.79688C 25.4883 7.96875 27.5273 7.05469 30.3047 7.05469C 33.0586 7.05469 35.0859 7.93945 36.3867 9.70898C 37.6875 11.4668 38.3555 14.1855 38.3906 17.8652L 38.3906 22.084ZM 35.1387 17.6367C 35.1387 14.8828 34.752 12.8789 33.9785 11.625C 33.2051 10.3594 31.9805 9.72656 30.3047 9.72656C 28.6406 9.72656 27.4277 10.3535 26.666 11.6074C 25.9043 12.8613 25.5117 14.7891 25.4883 17.3906L 25.4883 22.5938C 25.4883 25.3594 25.8867 27.4043 26.6836 28.7285C 27.4922 30.041 28.7109 30.6973 30.3398 30.6973C 31.9453 30.6973 33.1348 30.0762 33.9082 28.834C 34.6934 27.5918 35.1035 25.6348 35.1387 22.9629L 35.1387 17.6367ZM 53.2441 33L 49.9746 33L 49.9746 11.3262L 43.418 13.7344L 43.418 10.7812L 52.7344 7.2832L 53.2441 7.2832L 53.2441 33ZM 73.459 33L 70.1895 33L 70.1895 11.3262L 63.6328 13.7344L 63.6328 10.7812L 72.9492 7.2832L 73.459 7.2832L 73.459 33Z"/>
<path id="path11_fill" d="M 18.8965 33L 2.12695 33L 2.12695 30.6621L 10.9863 20.8184C 12.2988 19.3301 13.2012 18.123 13.6934 17.1973C 14.1973 16.2598 14.4492 15.293 14.4492 14.2969C 14.4492 12.9609 14.0449 11.8652 13.2363 11.0098C 12.4277 10.1543 11.3496 9.72656 10.002 9.72656C 8.38477 9.72656 7.125 10.1895 6.22266 11.1152C 5.33203 12.0293 4.88672 13.3066 4.88672 14.9473L 1.63477 14.9473C 1.63477 12.5918 2.39062 10.6875 3.90234 9.23438C 5.42578 7.78125 7.45898 7.05469 10.002 7.05469C 12.3809 7.05469 14.2617 7.68164 15.6445 8.93555C 17.0273 10.1777 17.7188 11.8359 17.7188 13.9102C 17.7188 16.4297 16.1133 19.4297 12.9023 22.9102L 6.04688 30.3457L 18.8965 30.3457L 18.8965 33ZM 38.3906 22.084C 38.3906 25.8926 37.7402 28.7227 36.4395 30.5742C 35.1387 32.4258 33.1055 33.3516 30.3398 33.3516C 27.6094 33.3516 25.5879 32.4492 24.2754 30.6445C 22.9629 28.8281 22.2832 26.1211 22.2363 22.5234L 22.2363 18.1816C 22.2363 14.4199 22.8867 11.625 24.1875 9.79688C 25.4883 7.96875 27.5273 7.05469 30.3047 7.05469C 33.0586 7.05469 35.0859 7.93945 36.3867 9.70898C 37.6875 11.4668 38.3555 14.1855 38.3906 17.8652L 38.3906 22.084ZM 35.1387 17.6367C 35.1387 14.8828 34.752 12.8789 33.9785 11.625C 33.2051 10.3594 31.9805 9.72656 30.3047 9.72656C 28.6406 9.72656 27.4277 10.3535 26.666 11.6074C 25.9043 12.8613 25.5117 14.7891 25.4883 17.3906L 25.4883 22.5938C 25.4883 25.3594 25.8867 27.4043 26.6836 28.7285C 27.4922 30.041 28.7109 30.6973 30.3398 30.6973C 31.9453 30.6973 33.1348 30.0762 33.9082 28.834C 34.6934 27.5918 35.1035 25.6348 35.1387 22.9629L 35.1387 17.6367ZM 53.2441 33L 49.9746 33L 49.9746 11.3262L 43.418 13.7344L 43.418 10.7812L 52.7344 7.2832L 53.2441 7.2832L 53.2441 33ZM 79.541 33L 62.7715 33L 62.7715 30.6621L 71.6309 20.8184C 72.9434 19.3301 73.8457 18.123 74.3379 17.1973C 74.8418 16.2598 75.0938 15.293 75.0938 14.2969C 75.0938 12.9609 74.6895 11.8652 73.8809 11.0098C 73.0723 10.1543 71.9941 9.72656 70.6465 9.72656C 69.0293 9.72656 67.7695 10.1895 66.8672 11.1152C 65.9766 12.0293 65.5312 13.3066 65.5312 14.9473L 62.2793 14.9473C 62.2793 12.5918 63.0352 10.6875 64.5469 9.23438C 66.0703 7.78125 68.1035 7.05469 70.6465 7.05469C 73.0254 7.05469 74.9062 7.68164 76.2891 8.93555C 77.6719 10.1777 78.3633 11.8359 78.3633 13.9102C 78.3633 16.4297 76.7578 19.4297 73.5469 22.9102L 66.6914 30.3457L 79.541 30.3457L 79.541 33Z"/>
<path id="path12_fill" d="M 18.8965 33L 2.12695 33L 2.12695 30.6621L 10.9863 20.8184C 12.2988 19.3301 13.2012 18.123 13.6934 17.1973C 14.1973 16.2598 14.4492 15.293 14.4492 14.2969C 14.4492 12.9609 14.0449 11.8652 13.2363 11.0098C 12.4277 10.1543 11.3496 9.72656 10.002 9.72656C 8.38477 9.72656 7.125 10.1895 6.22266 11.1152C 5.33203 12.0293 4.88672 13.3066 4.88672 14.9473L 1.63477 14.9473C 1.63477 12.5918 2.39062 10.6875 3.90234 9.23438C 5.42578 7.78125 7.45898 7.05469 10.002 7.05469C 12.3809 7.05469 14.2617 7.68164 15.6445 8.93555C 17.0273 10.1777 17.7188 11.8359 17.7188 13.9102C 17.7188 16.4297 16.1133 19.4297 12.9023 22.9102L 6.04688 30.3457L 18.8965 30.3457L 18.8965 33ZM 38.3906 22.084C 38.3906 25.8926 37.7402 28.7227 36.4395 30.5742C 35.1387 32.4258 33.1055 33.3516 30.3398 33.3516C 27.6094 33.3516 25.5879 32.4492 24.2754 30.6445C 22.9629 28.8281 22.2832 26.1211 22.2363 22.5234L 22.2363 18.1816C 22.2363 14.4199 22.8867 11.625 24.1875 9.79688C 25.4883 7.96875 27.5273 7.05469 30.3047 7.05469C 33.0586 7.05469 35.0859 7.93945 36.3867 9.70898C 37.6875 11.4668 38.3555 14.1855 38.3906 17.8652L 38.3906 22.084ZM 35.1387 17.6367C 35.1387 14.8828 34.752 12.8789 33.9785 11.625C 33.2051 10.3594 31.9805 9.72656 30.3047 9.72656C 28.6406 9.72656 27.4277 10.3535 26.666 11.6074C 25.9043 12.8613 25.5117 14.7891 25.4883 17.3906L 25.4883 22.5938C 25.4883 25.3594 25.8867 27.4043 26.6836 28.7285C 27.4922 30.041 28.7109 30.6973 30.3398 30.6973C 31.9453 30.6973 33.1348 30.0762 33.9082 28.834C 34.6934 27.5918 35.1035 25.6348 35.1387 22.9629L 35.1387 17.6367ZM 53.2441 33L 49.9746 33L 49.9746 11.3262L 43.418 13.7344L 43.418 10.7812L 52.7344 7.2832L 53.2441 7.2832L 53.2441 33ZM 78.293 14.0859C 78.293 15.3633 77.9531 16.5 77.2734 17.4961C 76.6055 18.4922 75.6973 19.2715 74.5488 19.834C 75.8848 20.4082 76.9395 21.2461 77.7129 22.3477C 78.498 23.4492 78.8906 24.6973 78.8906 26.0918C 78.8906 28.3066 78.1406 30.0703 76.6406 31.3828C 75.1523 32.6953 73.1895 33.3516 70.752 33.3516C 68.291 33.3516 66.3164 32.6953 64.8281 31.3828C 63.3516 30.0586 62.6133 28.2949 62.6133 26.0918C 62.6133 24.709 62.9883 23.4609 63.7383 22.3477C 64.5 21.2344 65.5488 20.3906 66.8848 19.8164C 65.748 19.2539 64.8516 18.4746 64.1953 17.4785C 63.5391 16.4824 63.2109 15.3516 63.2109 14.0859C 63.2109 11.9297 63.9023 10.2188 65.2852 8.95312C 66.668 7.6875 68.4902 7.05469 70.752 7.05469C 73.002 7.05469 74.8184 7.6875 76.2012 8.95312C 77.5957 10.2188 78.293 11.9297 78.293 14.0859ZM 75.6387 26.0215C 75.6387 24.5918 75.1816 23.4258 74.2676 22.5234C 73.3652 21.6211 72.1816 21.1699 70.7168 21.1699C 69.252 21.1699 68.0742 21.6152 67.1836 22.5059C 66.3047 23.3965 65.8652 24.5684 65.8652 26.0215C 65.8652 27.4746 66.293 28.6172 67.1484 29.4492C 68.0156 30.2812 69.2168 30.6973 70.752 30.6973C 72.2754 30.6973 73.4707 30.2812 74.3379 29.4492C 75.2051 28.6055 75.6387 27.4629 75.6387 26.0215ZM 70.752 9.72656C 69.4746 9.72656 68.4375 10.125 67.6406 10.9219C 66.8555 11.707 66.4629 12.7793 66.4629 14.1387C 66.4629 15.4395 66.8496 16.4941 67.623 17.3027C 68.4082 18.0996 69.4512 18.498 70.752 18.498C 72.0527 18.498 73.0898 18.0996 73.8633 17.3027C 74.6484 16.4941 75.041 15.4395 75.041 14.1387C 75.041 12.8379 74.6367 11.7773 73.8281 10.957C 73.0195 10.1367 71.9941 9.72656 70.752 9.72656Z"/>
<path id="path13_fill" d="M 18.8965 33L 2.12695 33L 2.12695 30.6621L 10.9863 20.8184C 12.2988 19.3301 13.2012 18.123 13.6934 17.1973C 14.1973 16.2598 14.4492 15.293 14.4492 14.2969C 14.4492 12.9609 14.0449 11.8652 13.2363 11.0098C 12.4277 10.1543 11.3496 9.72656 10.002 9.72656C 8.38477 9.72656 7.125 10.1895 6.22266 11.1152C 5.33203 12.0293 4.88672 13.3066 4.88672 14.9473L 1.63477 14.9473C 1.63477 12.5918 2.39062 10.6875 3.90234 9.23438C 5.42578 7.78125 7.45898 7.05469 10.002 7.05469C 12.3809 7.05469 14.2617 7.68164 15.6445 8.93555C 17.0273 10.1777 17.7188 11.8359 17.7188 13.9102C 17.7188 16.4297 16.1133 19.4297 12.9023 22.9102L 6.04688 30.3457L 18.8965 30.3457L 18.8965 33ZM 38.3906 22.084C 38.3906 25.8926 37.7402 28.7227 36.4395 30.5742C 35.1387 32.4258 33.1055 33.3516 30.3398 33.3516C 27.6094 33.3516 25.5879 32.4492 24.2754 30.6445C 22.9629 28.8281 22.2832 26.1211 22.2363 22.5234L 22.2363 18.1816C 22.2363 14.4199 22.8867 11.625 24.1875 9.79688C 25.4883 7.96875 27.5273 7.05469 30.3047 7.05469C 33.0586 7.05469 35.0859 7.93945 36.3867 9.70898C 37.6875 11.4668 38.3555 14.1855 38.3906 17.8652L 38.3906 22.084ZM 35.1387 17.6367C 35.1387 14.8828 34.752 12.8789 33.9785 11.625C 33.2051 10.3594 31.9805 9.72656 30.3047 9.72656C 28.6406 9.72656 27.4277 10.3535 26.666 11.6074C 25.9043 12.8613 25.5117 14.7891 25.4883 17.3906L 25.4883 22.5938C 25.4883 25.3594 25.8867 27.4043 26.6836 28.7285C 27.4922 30.041 28.7109 30.6973 30.3398 30.6973C 31.9453 30.6973 33.1348 30.0762 33.9082 28.834C 34.6934 27.5918 35.1035 25.6348 35.1387 22.9629L 35.1387 17.6367ZM 53.2441 33L 49.9746 33L 49.9746 11.3262L 43.418 13.7344L 43.418 10.7812L 52.7344 7.2832L 53.2441 7.2832L 53.2441 33ZM 79.2949 9.23438L 68.6953 33L 65.2852 33L 75.8496 10.0781L 61.998 10.0781L 61.998 7.40625L 79.2949 7.40625L 79.2949 9.23438Z"/>
<path id="path14_fill" d="M 18.8965 33L 2.12695 33L 2.12695 30.6621L 10.9863 20.8184C 12.2988 19.3301 13.2012 18.123 13.6934 17.1973C 14.1973 16.2598 14.4492 15.293 14.4492 14.2969C 14.4492 12.9609 14.0449 11.8652 13.2363 11.0098C 12.4277 10.1543 11.3496 9.72656 10.002 9.72656C 8.38477 9.72656 7.125 10.1895 6.22266 11.1152C 5.33203 12.0293 4.88672 13.3066 4.88672 14.9473L 1.63477 14.9473C 1.63477 12.5918 2.39062 10.6875 3.90234 9.23438C 5.42578 7.78125 7.45898 7.05469 10.002 7.05469C 12.3809 7.05469 14.2617 7.68164 15.6445 8.93555C 17.0273 10.1777 17.7188 11.8359 17.7188 13.9102C 17.7188 16.4297 16.1133 19.4297 12.9023 22.9102L 6.04688 30.3457L 18.8965 30.3457L 18.8965 33ZM 38.3906 22.084C 38.3906 25.8926 37.7402 28.7227 36.4395 30.5742C 35.1387 32.4258 33.1055 33.3516 30.3398 33.3516C 27.6094 33.3516 25.5879 32.4492 24.2754 30.6445C 22.9629 28.8281 22.2832 26.1211 22.2363 22.5234L 22.2363 18.1816C 22.2363 14.4199 22.8867 11.625 24.1875 9.79688C 25.4883 7.96875 27.5273 7.05469 30.3047 7.05469C 33.0586 7.05469 35.0859 7.93945 36.3867 9.70898C 37.6875 11.4668 38.3555 14.1855 38.3906 17.8652L 38.3906 22.084ZM 35.1387 17.6367C 35.1387 14.8828 34.752 12.8789 33.9785 11.625C 33.2051 10.3594 31.9805 9.72656 30.3047 9.72656C 28.6406 9.72656 27.4277 10.3535 26.666 11.6074C 25.9043 12.8613 25.5117 14.7891 25.4883 17.3906L 25.4883 22.5938C 25.4883 25.3594 25.8867 27.4043 26.6836 28.7285C 27.4922 30.041 28.7109 30.6973 30.3398 30.6973C 31.9453 30.6973 33.1348 30.0762 33.9082 28.834C 34.6934 27.5918 35.1035 25.6348 35.1387 22.9629L 35.1387 17.6367ZM 53.2441 33L 49.9746 33L 49.9746 11.3262L 43.418 13.7344L 43.418 10.7812L 52.7344 7.2832L 53.2441 7.2832L 53.2441 33ZM 75.5332 7.38867L 75.5332 10.1484L 74.9355 10.1484C 72.4043 10.1953 70.3887 10.9453 68.8887 12.3984C 67.3887 13.8516 66.5215 15.8965 66.2871 18.5332C 67.6348 16.9863 69.4746 16.2129 71.8066 16.2129C 74.0332 16.2129 75.8086 16.998 77.1328 18.5684C 78.4688 20.1387 79.1367 22.166 79.1367 24.6504C 79.1367 27.2871 78.416 29.3965 76.9746 30.9785C 75.5449 32.5605 73.623 33.3516 71.209 33.3516C 68.7598 33.3516 66.7734 32.4141 65.25 30.5391C 63.7266 28.6523 62.9648 26.2266 62.9648 23.2617L 62.9648 22.0137C 62.9648 17.3027 63.9668 13.7051 65.9707 11.2207C 67.9863 8.72461 70.9805 7.44727 74.9531 7.38867L 75.5332 7.38867ZM 71.2617 18.9199C 70.1484 18.9199 69.123 19.2539 68.1855 19.9219C 67.248 20.5898 66.5977 21.4277 66.2344 22.4355L 66.2344 23.6309C 66.2344 25.7402 66.709 27.4395 67.6582 28.7285C 68.6074 30.0176 69.791 30.6621 71.209 30.6621C 72.6738 30.6621 73.8223 30.123 74.6543 29.0449C 75.498 27.9668 75.9199 26.5547 75.9199 24.8086C 75.9199 23.0508 75.4922 21.6328 74.6367 20.5547C 73.793 19.4648 72.668 18.9199 71.2617 18.9199Z"/>
<path id="path15_fill" d="M 18.8965 33L 2.12695 33L 2.12695 30.6621L 10.9863 20.8184C 12.2988 19.3301 13.2012 18.123 13.6934 17.1973C 14.1973 16.2598 14.4492 15.293 14.4492 14.2969C 14.4492 12.9609 14.0449 11.8652 13.2363 11.0098C 12.4277 10.1543 11.3496 9.72656 10.002 9.72656C 8.38477 9.72656 7.125 10.1895 6.22266 11.1152C 5.33203 12.0293 4.88672 13.3066 4.88672 14.9473L 1.63477 14.9473C 1.63477 12.5918 2.39062 10.6875 3.90234 9.23438C 5.42578 7.78125 7.45898 7.05469 10.002 7.05469C 12.3809 7.05469 14.2617 7.68164 15.6445 8.93555C 17.0273 10.1777 17.7188 11.8359 17.7188 13.9102C 17.7188 16.4297 16.1133 19.4297 12.9023 22.9102L 6.04688 30.3457L 18.8965 30.3457L 18.8965 33ZM 38.3906 22.084C 38.3906 25.8926 37.7402 28.7227 36.4395 30.5742C 35.1387 32.4258 33.1055 33.3516 30.3398 33.3516C 27.6094 33.3516 25.5879 32.4492 24.2754 30.6445C 22.9629 28.8281 22.2832 26.1211 22.2363 22.5234L 22.2363 18.1816C 22.2363 14.4199 22.8867 11.625 24.1875 9.79688C 25.4883 7.96875 27.5273 7.05469 30.3047 7.05469C 33.0586 7.05469 35.0859 7.93945 36.3867 9.70898C 37.6875 11.4668 38.3555 14.1855 38.3906 17.8652L 38.3906 22.084ZM 35.1387 17.6367C 35.1387 14.8828 34.752 12.8789 33.9785 11.625C 33.2051 10.3594 31.9805 9.72656 30.3047 9.72656C 28.6406 9.72656 27.4277 10.3535 26.666 11.6074C 25.9043 12.8613 25.5117 14.7891 25.4883 17.3906L 25.4883 22.5938C 25.4883 25.3594 25.8867 27.4043 26.6836 28.7285C 27.4922 30.041 28.7109 30.6973 30.3398 30.6973C 31.9453 30.6973 33.1348 30.0762 33.9082 28.834C 34.6934 27.5918 35.1035 25.6348 35.1387 22.9629L 35.1387 17.6367ZM 53.2441 33L 49.9746 33L 49.9746 11.3262L 43.418 13.7344L 43.418 10.7812L 52.7344 7.2832L 53.2441 7.2832L 53.2441 33ZM 64.2656 20.168L 65.5664 7.40625L 78.6797 7.40625L 78.6797 10.4121L 68.3262 10.4121L 67.5527 17.3906C 68.8066 16.6523 70.2305 16.2832 71.8242 16.2832C 74.1563 16.2832 76.0078 17.0566 77.3789 18.6035C 78.75 20.1387 79.4355 22.2188 79.4355 24.8438C 79.4355 27.4805 78.7207 29.5605 77.291 31.084C 75.873 32.5957 73.8867 33.3516 71.332 33.3516C 69.0703 33.3516 67.2246 32.7246 65.7949 31.4707C 64.3652 30.2168 63.5508 28.4824 63.3516 26.2676L 66.4277 26.2676C 66.627 27.7324 67.1484 28.8398 67.9922 29.5898C 68.8359 30.3281 69.9492 30.6973 71.332 30.6973C 72.8438 30.6973 74.0273 30.1816 74.8828 29.1504C 75.75 28.1191 76.1836 26.6953 76.1836 24.8789C 76.1836 23.168 75.7148 21.7969 74.7773 20.7656C 73.8516 19.7227 72.6152 19.2012 71.0684 19.2012C 69.6504 19.2012 68.5371 19.5117 67.7285 20.1328L 66.8672 20.8359L 64.2656 20.168Z"/>
<path id="path16_fill" d="M 18.8965 33L 2.12695 33L 2.12695 30.6621L 10.9863 20.8184C 12.2988 19.3301 13.2012 18.123 13.6934 17.1973C 14.1973 16.2598 14.4492 15.293 14.4492 14.2969C 14.4492 12.9609 14.0449 11.8652 13.2363 11.0098C 12.4277 10.1543 11.3496 9.72656 10.002 9.72656C 8.38477 9.72656 7.125 10.1895 6.22266 11.1152C 5.33203 12.0293 4.88672 13.3066 4.88672 14.9473L 1.63477 14.9473C 1.63477 12.5918 2.39062 10.6875 3.90234 9.23438C 5.42578 7.78125 7.45898 7.05469 10.002 7.05469C 12.3809 7.05469 14.2617 7.68164 15.6445 8.93555C 17.0273 10.1777 17.7188 11.8359 17.7188 13.9102C 17.7188 16.4297 16.1133 19.4297 12.9023 22.9102L 6.04688 30.3457L 18.8965 30.3457L 18.8965 33ZM 38.3906 22.084C 38.3906 25.8926 37.7402 28.7227 36.4395 30.5742C 35.1387 32.4258 33.1055 33.3516 30.3398 33.3516C 27.6094 33.3516 25.5879 32.4492 24.2754 30.6445C 22.9629 28.8281 22.2832 26.1211 22.2363 22.5234L 22.2363 18.1816C 22.2363 14.4199 22.8867 11.625 24.1875 9.79688C 25.4883 7.96875 27.5273 7.05469 30.3047 7.05469C 33.0586 7.05469 35.0859 7.93945 36.3867 9.70898C 37.6875 11.4668 38.3555 14.1855 38.3906 17.8652L 38.3906 22.084ZM 35.1387 17.6367C 35.1387 14.8828 34.752 12.8789 33.9785 11.625C 33.2051 10.3594 31.9805 9.72656 30.3047 9.72656C 28.6406 9.72656 27.4277 10.3535 26.666 11.6074C 25.9043 12.8613 25.5117 14.7891 25.4883 17.3906L 25.4883 22.5938C 25.4883 25.3594 25.8867 27.4043 26.6836 28.7285C 27.4922 30.041 28.7109 30.6973 30.3398 30.6973C 31.9453 30.6973 33.1348 30.0762 33.9082 28.834C 34.6934 27.5918 35.1035 25.6348 35.1387 22.9629L 35.1387 17.6367ZM 53.2441 33L 49.9746 33L 49.9746 11.3262L 43.418 13.7344L 43.418 10.7812L 52.7344 7.2832L 53.2441 7.2832L 53.2441 33ZM 76.5 24.4043L 80.0508 24.4043L 80.0508 27.0586L 76.5 27.0586L 76.5 33L 73.2305 33L 73.2305 27.0586L 61.5762 27.0586L 61.5762 25.1426L 73.0371 7.40625L 76.5 7.40625L 76.5 24.4043ZM 65.2676 24.4043L 73.2305 24.4043L 73.2305 11.8535L 72.8438 12.5566L 65.2676 24.4043Z"/>
<path id="path17_fill" d="M 18.8965 33L 2.12695 33L 2.12695 30.6621L 10.9863 20.8184C 12.2988 19.3301 13.2012 18.123 13.6934 17.1973C 14.1973 16.2598 14.4492 15.293 14.4492 14.2969C 14.4492 12.9609 14.0449 11.8652 13.2363 11.0098C 12.4277 10.1543 11.3496 9.72656 10.002 9.72656C 8.38477 9.72656 7.125 10.1895 6.22266 11.1152C 5.33203 12.0293 4.88672 13.3066 4.88672 14.9473L 1.63477 14.9473C 1.63477 12.5918 2.39062 10.6875 3.90234 9.23438C 5.42578 7.78125 7.45898 7.05469 10.002 7.05469C 12.3809 7.05469 14.2617 7.68164 15.6445 8.93555C 17.0273 10.1777 17.7188 11.8359 17.7188 13.9102C 17.7188 16.4297 16.1133 19.4297 12.9023 22.9102L 6.04688 30.3457L 18.8965 30.3457L 18.8965 33ZM 38.3906 22.084C 38.3906 25.8926 37.7402 28.7227 36.4395 30.5742C 35.1387 32.4258 33.1055 33.3516 30.3398 33.3516C 27.6094 33.3516 25.5879 32.4492 24.2754 30.6445C 22.9629 28.8281 22.2832 26.1211 22.2363 22.5234L 22.2363 18.1816C 22.2363 14.4199 22.8867 11.625 24.1875 9.79688C 25.4883 7.96875 27.5273 7.05469 30.3047 7.05469C 33.0586 7.05469 35.0859 7.93945 36.3867 9.70898C 37.6875 11.4668 38.3555 14.1855 38.3906 17.8652L 38.3906 22.084ZM 35.1387 17.6367C 35.1387 14.8828 34.752 12.8789 33.9785 11.625C 33.2051 10.3594 31.9805 9.72656 30.3047 9.72656C 28.6406 9.72656 27.4277 10.3535 26.666 11.6074C 25.9043 12.8613 25.5117 14.7891 25.4883 17.3906L 25.4883 22.5938C 25.4883 25.3594 25.8867 27.4043 26.6836 28.7285C 27.4922 30.041 28.7109 30.6973 30.3398 30.6973C 31.9453 30.6973 33.1348 30.0762 33.9082 28.834C 34.6934 27.5918 35.1035 25.6348 35.1387 22.9629L 35.1387 17.6367ZM 53.2441 33L 49.9746 33L 49.9746 11.3262L 43.418 13.7344L 43.418 10.7812L 52.7344 7.2832L 53.2441 7.2832L 53.2441 33ZM 67.5 18.6211L 69.9434 18.6211C 71.4785 18.5977 72.6855 18.1934 73.5645 17.4082C 74.4434 16.623 74.8828 15.5625 74.8828 14.2266C 74.8828 11.2266 73.3887 9.72656 70.4004 9.72656C 68.9941 9.72656 67.8691 10.1309 67.0254 10.9395C 66.1934 11.7363 65.7773 12.7969 65.7773 14.1211L 62.5254 14.1211C 62.5254 12.0937 63.2637 10.4121 64.7402 9.07617C 66.2285 7.72852 68.1152 7.05469 70.4004 7.05469C 72.8145 7.05469 74.707 7.69336 76.0781 8.9707C 77.4492 10.248 78.1348 12.0234 78.1348 14.2969C 78.1348 15.4102 77.7715 16.4883 77.0449 17.5312C 76.3301 18.5742 75.3516 19.3535 74.1094 19.8691C 75.5156 20.3145 76.5996 21.0527 77.3613 22.084C 78.1348 23.1152 78.5215 24.375 78.5215 25.8633C 78.5215 28.1602 77.7715 29.9824 76.2715 31.3301C 74.7715 32.6777 72.8203 33.3516 70.418 33.3516C 68.0156 33.3516 66.0586 32.7012 64.5469 31.4004C 63.0469 30.0996 62.2969 28.3828 62.2969 26.25L 65.5664 26.25C 65.5664 27.5977 66.0059 28.6758 66.8848 29.4844C 67.7637 30.293 68.9414 30.6973 70.418 30.6973C 71.9883 30.6973 73.1895 30.2871 74.0215 29.4668C 74.8535 28.6465 75.2695 27.4688 75.2695 25.9336C 75.2695 24.4453 74.8125 23.3027 73.8984 22.5059C 72.9844 21.709 71.666 21.2988 69.9434 21.2754L 67.5 21.2754L 67.5 18.6211Z"/>
</defs>
</svg>
