<svg width="2000" height="2000" viewBox="0 0 2000 2000" version="1.1" xmlns="http://www.w3.org/2000/svg" xmlns:xlink="http://www.w3.org/1999/xlink">
<title>GiantCog</title>
<desc>Created using Figma</desc>
<g id="Canvas" transform="translate(-12099 -10784)">
<g id="GiantCog">
<g id="layer1">
<g id="path4708-4">
<use xlink:href="#path0_fill" transform="translate(12099 10784)" fill="#000000" fill-opacity="0.3"/>
</g>
</g>
</g>
</g>
<defs>
<path id="path0_fill" d="M 945.601 0C 928.491 0 914.697 13.8011 914.697 30.9041L 914.697 107.53C 914.697 122.617 881.676 131.096 881.676 131.096C 846.024 135.907 810.988 143.019 776.827 151.981C 776.799 151.977 743.234 156.615 737.456 142.668C 731.679 128.721 708.387 72.1107 708.387 72.1107C 701.841 56.2974 683.559 48.6308 667.746 55.1771L 566.993 97.0877C 551.187 103.634 543.789 121.774 550.342 137.588C 550.342 137.588 573.917 194.182 579.693 208.145C 585.47 222.078 558.244 242.576 558.244 242.576C 527.339 260.643 497.545 280.394 469.2 301.984C 469.205 301.989 440.084 319.139 429.406 308.475C 418.736 297.784 375.358 254.428 375.358 254.428C 363.256 242.325 343.567 242.325 331.472 254.428L 254.426 331.474C 242.331 343.576 242.324 363.117 254.426 375.219C 254.426 375.219 297.943 418.729 308.614 429.407C 319.284 440.084 302.122 469.201 302.122 469.201C 280.515 497.567 260.791 527.313 242.715 558.245C 242.724 558.24 222.082 585.189 208.142 579.412C 194.195 573.621 137.585 550.201 137.585 550.201C 121.779 543.655 103.639 551.202 97.0854 566.994L 55.4564 667.747C 48.9101 683.539 56.3018 701.559 72.108 708.106C 72.108 708.106 128.716 731.68 142.665 737.457C 156.612 743.241 152.12 776.828 152.12 776.828C 143.158 810.983 136.187 846.026 131.376 881.677L 131.094 881.677C 131.098 881.681 122.621 914.705 107.527 914.698L 31.1858 914.698C 14.076 914.702 0 928.477 0 945.602L 0 1054.4C 0.00451554 1071.5 14.0692 1085.31 31.1858 1085.31L 107.527 1085.31C 122.614 1085.31 131.094 1118.33 131.094 1118.33L 131.376 1118.33C 136.207 1154.12 143.105 1189.31 152.12 1223.6C 152.284 1224.91 156.608 1256.89 142.948 1262.54C 129.001 1268.31 72.1063 1291.89 72.1063 1291.89C 56.3002 1298.45 48.9156 1316.43 55.4547 1332.25L 97.0834 1433.01C 103.63 1448.8 121.777 1456.33 137.583 1449.8C 137.583 1449.8 194.187 1426.35 208.14 1420.59C 222.08 1414.81 242.713 1441.76 242.713 1441.76C 260.79 1472.68 280.515 1502.43 302.121 1530.8C 302.13 1530.8 319.289 1559.92 308.612 1570.59C 297.927 1581.27 254.424 1624.78 254.424 1624.78C 242.329 1636.88 242.329 1656.42 254.424 1668.53L 331.47 1745.57C 343.565 1757.67 363.262 1757.67 375.357 1745.57C 375.357 1745.57 418.726 1702.2 429.404 1691.52C 440.075 1680.85 469.199 1698.02 469.199 1698.02C 497.565 1719.62 527.31 1739.35 558.242 1757.42C 558.252 1757.42 585.482 1777.92 579.692 1791.86C 573.908 1805.8 550.34 1862.41 550.34 1862.41C 543.801 1878.2 551.185 1896.35 566.991 1902.91L 667.744 1944.82C 683.55 1951.38 701.832 1943.69 708.385 1927.89C 708.385 1927.89 731.671 1871.28 737.455 1857.33C 743.224 1843.39 776.825 1848.02 776.825 1848.02C 810.983 1856.98 846.023 1864.09 881.674 1868.9C 881.674 1868.9 914.709 1877.37 914.695 1892.47L 914.695 1969.1C 914.699 1986.2 928.482 1999.99 945.599 2000L 1054.68 2000C 1071.78 2000 1085.58 1986.21 1085.58 1969.1C 1085.58 1969.1 1085.58 1907.59 1085.58 1892.47C 1085.58 1877.38 1118.32 1868.9 1118.32 1868.9C 1154.07 1864.08 1189.21 1857.01 1223.45 1848.02C 1223.44 1848.01 1256.77 1843.39 1262.54 1857.33C 1268.31 1871.28 1292.03 1927.89 1292.03 1927.89C 1298.58 1943.68 1316.71 1951.36 1332.53 1944.82L 1433.14 1902.91C 1448.94 1896.35 1456.33 1878.23 1449.79 1862.41C 1449.79 1862.41 1426.36 1805.8 1420.58 1791.86C 1414.81 1777.91 1441.75 1757.42 1441.75 1757.42C 1472.68 1739.35 1502.43 1719.62 1530.79 1698.02C 1530.79 1698.02 1560.06 1680.85 1570.73 1691.52C 1581.41 1702.2 1624.78 1745.57 1624.78 1745.57C 1636.89 1757.65 1656.54 1757.65 1668.66 1745.57L 1745.57 1668.53C 1757.67 1656.43 1757.67 1636.88 1745.57 1624.78C 1745.57 1624.78 1702.21 1581.26 1691.52 1570.59C 1680.85 1559.91 1698.01 1530.8 1698.01 1530.8C 1719.63 1502.42 1739.62 1472.7 1757.71 1441.76C 1757.7 1441.76 1778.06 1414.53 1792 1420.31C 1805.95 1426.09 1862.69 1449.8 1862.69 1449.8C 1878.5 1456.33 1896.49 1448.8 1903.05 1433.01L 1944.82 1332.25C 1951.36 1316.44 1943.69 1298.45 1927.89 1291.89C 1927.89 1291.89 1871.28 1268.32 1857.33 1262.54C 1843.38 1256.77 1848.02 1223.17 1848.02 1223.17C 1856.98 1189.01 1864.09 1153.97 1868.9 1118.32C 1868.9 1118.33 1877.53 1085.29 1892.61 1085.3L 1969.1 1085.3C 1986.19 1085.29 1999.99 1071.52 2000 1054.4L 2000 945.598C 2000 928.496 1986.21 914.412 1969.1 914.412L 1892.61 914.412C 1877.52 914.412 1868.9 881.674 1868.9 881.674C 1864.09 846.022 1856.98 810.986 1848.02 776.825C 1848.02 776.825 1843.39 743.224 1857.33 737.454C 1871.28 731.684 1927.89 708.102 1927.89 708.102C 1943.69 701.556 1951.35 683.416 1944.82 667.602L 1903.05 566.989C 1896.5 551.183 1878.5 543.665 1862.69 550.196C 1862.69 550.196 1805.96 573.623 1792 579.407C 1778.06 585.192 1757.71 558.24 1757.71 558.24C 1739.62 527.3 1719.63 497.573 1698.01 469.196C 1698.02 469.182 1680.85 440.073 1691.52 429.402C 1702.21 418.739 1745.57 375.214 1745.57 375.214C 1757.67 363.112 1757.66 343.578 1745.57 331.469L 1668.71 254.568C 1656.61 242.487 1636.93 242.487 1624.83 254.568C 1624.83 254.568 1581.47 297.944 1570.78 308.615C 1560.11 319.3 1530.84 302.124 1530.84 302.124C 1502.5 280.534 1472.71 260.781 1441.8 242.716C 1441.81 242.721 1414.86 222.232 1420.63 208.285C 1426.42 194.338 1449.84 137.728 1449.84 137.728C 1456.39 121.922 1448.99 103.788 1433.19 97.2277L 1332.58 55.2774C 1316.78 48.7455 1298.63 56.4048 1292.08 72.2111C 1292.08 72.2111 1268.38 128.815 1262.59 142.768C 1256.82 156.715 1223.5 152.082 1223.5 152.082C 1189.26 143.087 1154.12 136.018 1118.38 131.197C 1118.38 131.201 1085.64 122.717 1085.64 107.63L 1085.64 31.0044C 1085.64 13.9018 1071.56 0.100195 1054.45 0.100195L 945.651 0.100195L 945.601 0ZM 1000.07 253.581C 1412.28 253.581 1746.41 587.86 1746.41 1000.06C 1746.41 1412.27 1412.27 1746.41 1000.07 1746.41C 587.858 1746.41 253.724 1412.27 253.724 1000.06C 253.724 587.851 587.863 253.581 1000.07 253.581Z"/>
</defs>
</svg>
