<svg width="260" height="48" viewBox="0 0 309 53" fill="none" xmlns="http://www.w3.org/2000/svg">
<g clip-path="url(#clip0)">
<path d="M60.6239 3.65977e-06C60.4187 0.454453 60.2136 0.937294 60.0084 1.44855C59.8545 1.903 59.6494 2.38586 59.3929 2.89711C59.3929 2.95391 59.3673 3.01072 59.316 3.06755C59.316 3.06755 59.316 3.09595 59.316 3.15274C58.8544 4.23206 58.4185 5.28297 58.0082 6.30548C57.5978 7.27118 57.2388 8.06647 56.9311 8.69133C56.572 9.54342 56.1874 10.4523 55.7771 11.418C55.3667 12.3269 54.9821 13.2926 54.6231 14.3151C54.1615 15.2808 53.7255 16.3033 53.3152 17.3827C52.9561 18.4052 52.5715 19.4277 52.1612 20.4502C51.0841 23.3473 50.1609 26.216 49.3916 29.0563C48.6222 31.8398 48.2375 34.3109 48.2375 36.4695C48.2375 38.0601 48.6222 39.3666 49.3916 40.3891C50.2122 41.4116 51.6483 41.9513 53.6998 42.0081H57.4696L55.0077 50.3586H53.6998C48.8787 50.3586 45.4679 49.0804 43.4676 46.5242C41.5186 43.9679 40.5698 40.6164 40.6211 36.4695C40.6211 35.5038 40.6724 34.5381 40.775 33.5724C40.8776 32.5499 41.0314 31.5274 41.2366 30.5049C39.185 33.6292 37.1078 36.8387 35.0049 40.1335C32.9021 43.4282 30.671 46.8366 28.3117 50.3586H20.1567L25.9267 24.5402C23.4135 28.9143 20.7978 33.26 18.0795 37.5772C15.4124 41.8945 12.5915 46.1549 9.61673 50.3586H2.02542e-06C1.17966 48.6544 2.38496 46.9218 3.6159 45.1608C4.84684 43.343 6.07778 41.4684 7.30872 39.537C8.53966 37.6056 9.77061 35.6458 11.0016 33.6576C12.2838 31.6694 13.5404 29.6812 14.7713 27.693C17.028 24.0006 19.2078 20.3366 21.3107 16.701C23.4648 13.0086 25.4651 9.54343 27.3115 6.30548C27.8757 5.33978 28.4399 4.37407 29.0041 3.40837C29.5683 2.38586 30.2094 1.24974 30.9274 3.65977e-06H39.3132L32.7738 29.0563C33.1329 28.4882 33.4919 27.9202 33.8509 27.3521C34.2612 26.7273 34.6459 26.1308 35.0049 25.5627C35.4152 24.9947 35.7999 24.4266 36.1589 23.8586C36.5692 23.2337 36.9539 22.6372 37.3129 22.0692C39.5697 18.5472 41.852 14.9684 44.1601 11.3328C46.5194 7.69722 48.9813 3.91962 51.5457 3.65977e-06H60.6239H60.6239Z" transform="translate(0 1.95984)" fill="black"/>
<path d="M29.7734 19.0869L27.3115 27.5226H19.8489C19.0283 27.5226 18.2846 27.3806 17.6179 27.0965C16.9511 26.8125 16.3356 26.4432 15.7714 25.9888C15.0021 26.5001 14.1558 26.9261 13.2326 27.267C12.3607 27.6078 11.4888 27.835 10.6169 27.9486C10.3091 28.0054 10.0014 28.0338 9.69368 28.0338C9.38594 28.0906 9.0782 28.119 8.77046 28.119C7.18049 28.119 5.66747 27.7214 4.23137 26.9261C2.84656 26.1308 1.74384 24.8527 0.923208 23.0917C0.615472 22.3532 0.384666 21.6431 0.230798 20.9614C0.0769306 20.223 -4.76296e-06 19.4845 -4.76296e-06 18.746C-4.76296e-06 17.269 0.256448 15.8489 0.769339 14.4855C1.28223 13.0654 1.94899 11.7589 2.76962 10.5659C5.33408 6.75993 8.51402 4.09005 12.3094 2.55628C16.1561 0.965713 20.131 0.113605 24.2342 -7.85887e-06C24.388 -7.85887e-06 24.5419 -7.85887e-06 24.6958 -7.85887e-06C24.9009 -7.85887e-06 25.1061 -7.85887e-06 25.3113 -7.85887e-06V8.43571C23.67 8.43571 22.0287 8.54932 20.3875 8.77653C18.7975 9.00374 17.2588 9.42978 15.7714 10.0547C14.4379 10.5659 13.1813 11.276 12.0017 12.1849C10.822 13.0938 9.79625 14.2015 8.92433 15.508C8.87305 15.6217 8.79612 15.7637 8.69353 15.9341C8.59094 16.1045 8.48837 16.3033 8.38581 16.5306C8.28322 16.701 8.18065 16.8714 8.07809 17.0418C8.02681 17.2122 7.94987 17.4111 7.84729 17.6383C7.79601 17.8087 7.74471 18.0075 7.6934 18.2347C7.64212 18.462 7.61648 18.6608 7.61648 18.8312C7.61648 19.0584 7.69342 19.2857 7.84729 19.5129C8.00115 19.6833 8.25761 19.7685 8.61663 19.7685C10.6169 19.7685 12.1043 19.03 13.0788 17.5531C14.0533 16.0761 14.8226 14.4571 15.3868 12.6962C15.4894 12.2985 15.592 11.9293 15.6945 11.5884C15.7971 11.2476 15.8997 10.9068 16.0022 10.5659L23.234 13.2074L21.5415 19.0868H29.7734V19.0869Z" transform="translate(58.584 24.881)" fill="black"/>
<path d="M29.0041 29.738L17.7717 38.9406L19.6951 43.7975C19.7977 43.8543 19.9259 43.9111 20.0798 43.9679C20.2849 43.9679 20.4901 43.9679 20.6952 43.9679H26.3883L23.8495 52.4036H20.6952C20.644 52.4036 20.567 52.4036 20.4644 52.4036C20.4132 52.4036 20.3619 52.4036 20.3105 52.4036C18.8232 52.3468 17.3871 51.9492 16.0023 51.2107C14.6174 50.4722 13.5917 49.2509 12.9249 47.5467L10.9246 42.5193L8.00114 52.4036H9.80545e-07L15.3099 6.08857e-06H23.311L14.1558 31.4422L24.465 22.9213L29.0041 29.738V29.738Z" transform="translate(87.6025)" fill="black"/>
<path d="M26.9268 20.2797L24.388 28.7155H7.61645C6.23164 28.7155 4.92376 28.403 3.69282 27.7781C2.51316 27.0965 1.58994 26.074 0.923178 24.7106C0.615442 24.0857 0.384654 23.4041 0.230786 22.6656C0.076918 21.9271 0 21.1886 0 20.4502C0 20.2798 0 20.1093 0 19.9389C0.0512792 19.7117 0.0769171 19.4845 0.0769171 19.2572C0.179506 18.1211 0.384631 16.985 0.692358 15.8489C1.05138 14.6559 1.41042 13.5766 1.76944 12.6109C2.84651 9.88422 4.1544 7.6404 5.69308 5.87941C7.28304 4.06162 8.9243 2.69826 10.6168 1.78936C11.3349 1.33492 12.0273 0.994075 12.6941 0.766849C13.4121 0.482807 14.1045 0.284 14.7713 0.1704C15.079 0.113605 15.3867 0.0852097 15.6945 0.0852097C16.0022 0.0284148 16.3356 0 16.6946 0C18.7975 0 20.6695 0.653281 22.3108 1.95982C23.9521 3.26636 24.7727 5.08416 24.7727 7.4132C24.7727 7.86765 24.7214 8.35051 24.6188 8.86177C24.5675 9.31621 24.4393 9.82746 24.2341 10.3955C23.8238 11.8157 22.9775 13.3778 21.6953 15.082C20.4131 16.7294 18.6179 18.462 16.3099 20.2798H26.9268L26.9268 20.2797ZM16.8485 8.26526C15.0021 8.37889 13.3865 9.17416 12.0017 10.6511C10.6169 12.1281 9.59108 13.7471 8.92432 15.508C8.92432 15.5648 8.89868 15.6216 8.8474 15.6785C8.8474 15.6785 8.8474 15.7069 8.8474 15.7637C11.2067 14.2299 13.0018 12.8382 14.2328 11.5884C15.515 10.2819 16.3869 9.17416 16.8485 8.26526V8.26526Z" transform="translate(115.031 23.6881)" fill="black"/>
<path d="M26.3114 12.2701H23.3879C23.0802 12.4973 22.6186 12.9518 22.0031 13.6335C21.3877 14.3151 20.7465 15.082 20.0798 15.9341C19.8746 16.1613 19.6695 16.4169 19.4643 16.701C19.2592 16.985 19.054 17.2407 18.8489 17.4679C18.1821 18.4336 17.6179 19.3425 17.1563 20.1946C16.6947 20.9898 16.4639 21.6431 16.4639 22.1544C16.5152 22.3816 16.5921 22.5804 16.6947 22.7508C16.8486 22.8645 17.0794 22.9213 17.3871 22.9213H26.0037L23.5418 31.357C23.1828 31.357 22.7212 31.357 22.157 31.357C21.6441 31.357 21.0799 31.357 20.4645 31.357C19.849 31.357 19.2592 31.357 18.695 31.357C18.1821 31.357 17.7461 31.357 17.3871 31.357C15.7972 31.357 14.3097 30.9593 12.9249 30.1641C11.5914 29.3688 10.54 28.1758 9.77063 26.5853C9.61677 26.2444 9.48857 25.9036 9.38598 25.5627C9.28339 25.2219 9.20644 24.8527 9.15516 24.455C9.05257 24.1142 8.97565 23.7734 8.92437 23.4325C8.92437 23.0917 8.92437 22.7508 8.92437 22.41C8.92437 20.5922 9.2834 18.8312 10.0015 17.1271C10.7195 15.3661 11.5658 13.7471 12.5403 12.2701H11.3093C11.1555 12.2701 11.0016 12.2985 10.8477 12.3553C10.7451 12.3553 10.6169 12.3837 10.463 12.4405C9.95013 12.6109 9.46289 12.9518 9.00129 13.463C8.53969 13.9175 8.20628 14.4003 8.00113 14.9116C7.94985 14.9684 7.89857 15.0536 7.84726 15.1672C7.84726 15.224 7.84726 15.2808 7.84726 15.3376L7.23178 17.2975L-1.63831e-05 14.656L4.23136 3.31824e-06L11.5401 2.64148L11.1554 3.74921H26.3114V12.2701L26.3114 12.2701Z" transform="translate(140.326 21.0468)" fill="black"/>
<path d="M19.3104 20.1093C19.3104 23.9154 18.259 27.0113 16.1561 29.3971C14.0533 31.783 11.258 32.9759 7.77032 32.9759H2.24727e-06L2.4619 24.5402H7.77032C9.10385 24.5402 10.0784 24.1994 10.6938 23.5177C11.3606 22.7792 11.694 21.6431 11.694 20.1093C11.694 19.3141 11.617 18.5756 11.4631 17.8939C11.3093 17.1554 11.1041 16.5022 10.8477 15.9341C9.87317 17.4111 9.0269 18.6892 8.30885 19.7685C7.64209 20.791 7.30872 21.3307 7.30872 21.3875L1.154 16.4454C1.154 16.4454 1.69253 15.5933 2.76961 13.8891C3.89797 12.1849 5.15456 10.3103 6.53937 8.26528C7.8216 6.22026 9.02691 4.34566 10.1553 2.64148C11.2836 0.937294 11.8478 0.0568013 11.8478 -3.63643e-06L18.6949 3.7492C18.6437 3.806 18.3359 4.28884 17.7717 5.19775C17.2075 6.10664 16.4895 7.21436 15.6176 8.52091C16.7972 10.1115 17.6948 11.9293 18.3103 13.9743C18.977 15.9625 19.3104 18.0075 19.3104 20.1093V20.1093Z" transform="translate(166.769 19.4275)" fill="black"/>
<path d="M12.0786 7.02102e-06L7.30874 9.79904H-1.30643e-05L4.84684 7.02102e-06H12.0786Z" transform="translate(183.296 2)" fill="black"/>
<path d="M45.7756 5.45337C46.6476 6.64629 47.2631 7.92444 47.6221 9.28778C48.0324 10.6511 48.2375 12.0997 48.2375 13.6335C48.2375 16.3033 47.6221 19.1152 46.3911 22.0692C45.1602 25.0231 43.4164 28.0054 41.1596 31.0161C39.8261 32.8339 38.3131 34.6233 36.6205 36.3843C34.928 38.1453 33.0816 39.8779 31.0813 41.582C29.2349 43.1158 27.4398 44.4507 25.6959 45.5869C23.9521 46.723 22.2083 47.6887 20.4644 48.484C20.1054 48.6544 19.7464 48.8248 19.3873 48.9952C19.0796 49.1089 18.7462 49.2225 18.3872 49.3361C17.2589 49.7905 16.1048 50.1597 14.9252 50.4438C13.7968 50.671 12.6684 50.8698 11.5401 51.0402C9.84753 51.2674 8.12936 51.4095 6.38552 51.4663C4.69298 51.4663 2.97477 51.4663 1.23093 51.4663C1.02579 51.4663 0.820622 51.4663 0.615457 51.4663C0.41031 51.4663 0.205185 51.4663 1.69089e-05 51.4663L9.69368 18.5756H17.6948L10.6169 42.6898C13.5917 42.2353 16.3613 41.3264 18.9257 39.9631C21.5415 38.5997 24.029 36.9239 26.3883 34.9357C27.1064 34.3109 28.0552 33.4304 29.2349 32.2942C30.4658 31.1581 31.7224 29.88 33.0046 28.4598C34.0304 27.3237 35.0306 26.1308 36.0051 24.8811C37.0309 23.5745 37.9284 22.268 38.6978 20.9614C39.3645 19.7685 39.8774 18.604 40.2364 17.4679C40.6467 16.3317 40.8519 15.224 40.8519 14.1447C40.8519 13.4062 40.7494 12.7245 40.5443 12.0997C40.3393 11.418 39.9802 10.7931 39.4672 10.2251V10.1399C38.9544 9.51503 38.2106 9.06057 37.2361 8.77654C36.2616 8.4925 35.1076 8.35047 33.7741 8.35047C32.9535 8.35047 32.1072 8.40729 31.2353 8.52091C30.3634 8.63454 29.4402 8.77656 28.4657 8.94698C25.3883 9.51504 22.0801 10.4807 18.5412 11.8441C15.0022 13.1506 11.412 14.7412 7.77044 16.6158C7.05239 16.9566 6.33436 17.2975 5.61631 17.6383C4.94955 17.9791 4.28278 18.3484 3.61602 18.746L0.307858 11.0772C1.17978 10.6228 2.05171 10.1683 2.92363 9.71385C3.84683 9.2594 4.77002 8.80496 5.69323 8.35051C9.43735 6.58952 13.1302 5.02735 16.7717 3.664C20.4645 2.30065 23.9266 1.30655 27.1578 0.681681C28.1836 0.454468 29.235 0.284066 30.3121 0.170443C31.3891 0.0568193 32.4919 4.06027e-06 33.6203 4.06027e-06C33.7229 4.06027e-06 33.7999 4.06027e-06 33.8511 4.06027e-06C33.9538 4.06027e-06 34.0563 4.06027e-06 34.1586 4.06027e-06C36.3641 0.056799 38.4926 0.482834 40.5442 1.27813C42.647 2.07342 44.3908 3.46517 45.7756 5.45338V5.45337Z" transform="translate(212.645 0.851929)" fill="black"/>
<path d="M26.9269 20.2797L24.3881 28.7155H7.61645C6.23164 28.7155 4.92376 28.403 3.69282 27.7781C2.51315 27.0965 1.58996 26.074 0.923213 24.7106C0.615477 24.0857 0.384688 23.4041 0.23082 22.6656C0.0769527 21.9271 0 21.1886 0 20.4502C0 20.2798 0 20.1093 0 19.9389C0.0511883 19.7117 0.0767784 19.4845 0.0767784 19.2572C0.179458 18.1211 0.384643 16.985 0.692288 15.8489C1.0513 14.6559 1.41032 13.5766 1.76937 12.6109C2.84644 9.88422 4.15433 7.6404 5.69301 5.87941C7.28296 4.06162 8.92419 2.69826 10.6167 1.78936C11.3348 1.33492 12.0272 0.994075 12.6939 0.766849C13.412 0.482807 14.1044 0.284 14.7712 0.1704C15.0789 0.113605 15.3866 0.0852097 15.6944 0.0852097C16.0021 0.0284148 16.3355 0 16.6945 0C18.7974 0 20.6695 0.653281 22.3107 1.95982C23.952 3.26636 24.7726 5.08416 24.7726 7.4132C24.7726 7.86765 24.7212 8.35051 24.6186 8.86177C24.5674 9.31621 24.4391 9.82746 24.2337 10.3955C23.8234 11.8157 22.9771 13.3778 21.6949 15.082C20.4127 16.7294 18.6176 18.462 16.3095 20.2798L26.9269 20.2797ZM16.8485 8.26526C15.0021 8.37889 13.3865 9.17416 12.0017 10.6511C10.6169 12.1281 9.5911 13.7471 8.92435 15.508C8.92435 15.5648 8.89876 15.6216 8.84758 15.6785C8.84758 15.6785 8.84758 15.7069 8.84758 15.7637C11.2069 14.2299 13.002 12.8382 14.233 11.5884C15.5152 10.2819 16.3869 9.17416 16.8485 8.26526Z" transform="translate(251.849 23.6881)" fill="black"/>
<path d="M31.2361 19.172L28.6973 27.6077H23.3888C21.4912 27.6077 19.9525 26.9261 18.7728 25.5627C17.5932 24.1994 17.0033 22.552 17.0033 20.6206C17.0033 20.2229 17.0289 19.8253 17.0801 19.4277C17.1828 18.9732 17.2853 18.5472 17.3877 18.1495C17.4904 17.7519 17.5929 17.3826 17.6953 17.0418C17.798 16.6442 17.9005 16.2749 18.0029 15.9341C18.2079 15.1956 18.4131 14.4571 18.6183 13.7186C18.8233 12.9802 19.0285 12.2417 19.2338 11.5032C19.285 11.3896 19.3106 11.276 19.3106 11.1624C19.3618 11.0487 19.3874 10.9351 19.3874 10.8216C19.49 10.5375 19.567 10.2251 19.6181 9.88426C19.7208 9.54343 19.7978 9.20258 19.849 8.86175C19.4386 9.03217 18.9514 9.31618 18.3872 9.71383C17.823 10.1115 17.2588 10.5943 16.6946 11.1624C15.2585 12.5257 13.8994 14.1447 12.6171 16.0193C11.3862 17.8939 10.4117 19.8253 9.6937 21.8135L8.00111 27.6078H0L8.07806 0H16.0792L15.5406 1.78938C16.1048 1.44855 16.669 1.16451 17.2332 0.937287C17.8486 0.653246 18.4641 0.454439 19.0796 0.340839C19.3873 0.227215 19.6694 0.1704 19.9259 0.1704C20.2336 0.113605 20.5414 0.0852097 20.8491 0.0852097C21.2594 0.0852097 21.6697 0.142025 22.08 0.255648C22.5416 0.312443 22.952 0.426049 23.311 0.596468C24.7984 1.16453 25.8754 2.15863 26.5422 3.57879C27.209 4.99894 27.5423 6.5327 27.5423 8.18007C27.5423 9.03216 27.4398 9.96946 27.2347 10.992C27.0809 11.9577 26.8244 13.0086 26.4654 14.1447C26.3115 14.5424 26.1832 14.9684 26.0806 15.4229C25.9779 15.8205 25.8753 16.2181 25.773 16.6158C25.7218 16.7862 25.6704 16.9566 25.619 17.127C25.5678 17.2407 25.5422 17.3543 25.5422 17.4678C25.4395 17.7519 25.3625 18.0359 25.3114 18.3199C25.2602 18.604 25.1833 18.888 25.0806 19.172H31.2361Z" transform="translate(278.065 24.7959)" fill="black"/>
</g>
<defs>
<clipPath id="clip0">
<rect width="309" height="53" fill="white"/>
</clipPath>
</defs>
</svg>
