<?xml version="1.0" encoding="UTF-8" standalone="no"?>
<svg
   xmlns:sketch="http://www.bohemiancoding.com/sketch/ns"
   xmlns:dc="http://purl.org/dc/elements/1.1/"
   xmlns:cc="http://creativecommons.org/ns#"
   xmlns:rdf="http://www.w3.org/1999/02/22-rdf-syntax-ns#"
   xmlns:svg="http://www.w3.org/2000/svg"
   xmlns="http://www.w3.org/2000/svg"
   xmlns:sodipodi="http://sodipodi.sourceforge.net/DTD/sodipodi-0.dtd"
   xmlns:inkscape="http://www.inkscape.org/namespaces/inkscape"
   width="768px"
   height="768px"
   viewBox="0 0 768 768"
   version="1.1"
   id="svg919"
   sodipodi:docname="twitter.svg"
   inkscape:version="0.92.2 5c3e80d, 2017-08-06">
  <metadata
     id="metadata923">
    <rdf:RDF>
      <cc:Work
         rdf:about="">
        <dc:format>image/svg+xml</dc:format>
        <dc:type
           rdf:resource="http://purl.org/dc/dcmitype/StillImage" />
      </cc:Work>
    </rdf:RDF>
  </metadata>
  <sodipodi:namedview
     pagecolor="#ffffff"
     bordercolor="#666666"
     borderopacity="1"
     objecttolerance="10"
     gridtolerance="10"
     guidetolerance="10"
     inkscape:pageopacity="0"
     inkscape:pageshadow="2"
     inkscape:window-width="1262"
     inkscape:window-height="1392"
     id="namedview921"
     showgrid="false"
     inkscape:zoom="0.61458333"
     inkscape:cx="216.55247"
     inkscape:cy="169.08486"
     inkscape:window-x="1286"
     inkscape:window-y="12"
     inkscape:window-maximized="0"
     inkscape:current-layer="Page-1" />
  <!-- Generator: Sketch 3.4.4 (17248) - http://www.bohemiancoding.com/sketch -->
  <title
     id="title907">Artboard 1</title>
  <desc
     id="desc909">Created with Sketch.</desc>
  <defs
     id="defs911" />
  <g
     id="Page-1"
     stroke="none"
     stroke-width="1"
     fill="none"
     fill-rule="evenodd"
     sketch:type="MSPage">
    <g
       id="Artboard-1"
       sketch:type="MSArtboardGroup"
       style="fill:#f2f2f2;fill-opacity:1">
      <g
         id="twitter-2"
         sketch:type="MSLayerGroup"
         style="fill:#f2f2f2;fill-opacity:1">
        <g
           id="Group"
           style="fill:#f2f2f2;fill-opacity:1">
          <g
             id="icomoon-ignore"
             style="fill:#f2f2f2;fill-opacity:1" />
          <path
             d="M651.513,189.945 C681.183,172.184 703.933,144.046 714.662,110.486 C686.911,126.952 656.19,138.907 623.467,145.357 C597.279,117.451 559.949,100.001 518.644,100.001 C439.343,100.001 375.043,164.296 375.043,243.618 C375.043,254.857 376.308,265.813 378.767,276.343 C259.407,270.344 153.576,213.181 82.743,126.292 C70.379,147.491 63.304,172.158 63.304,198.504 C63.304,248.322 88.655,292.286 127.189,318.034 C103.658,317.282 81.505,310.817 62.138,300.059 C62.124,300.655 62.124,301.267 62.124,301.875 C62.124,371.445 111.629,429.473 177.333,442.692 C165.282,445.96 152.596,447.725 139.495,447.725 C130.232,447.725 121.232,446.829 112.467,445.14 C130.755,502.19 183.785,543.726 246.618,544.874 C197.467,583.395 135.558,606.361 68.262,606.361 C56.681,606.361 45.243,605.678 34.002,604.342 C97.574,645.108 173.054,668.867 254.149,668.867 C518.317,668.867 662.757,450.04 662.757,260.26 C662.757,254.034 662.63,247.827 662.361,241.662 C690.408,221.455 714.761,196.15 734.002,167.346 C708.268,178.779 680.574,186.495 651.515,189.948 L651.513,189.945 Z"
             id="Shape"
             fill="#555B68"
             sketch:type="MSShapeGroup"
             style="fill:#f2f2f2;fill-opacity:1" />
        </g>
      </g>
    </g>
  </g>
</svg>
