<?xml version="1.0" encoding="UTF-8" standalone="no"?>
<!-- Created with Inkscape (http://www.inkscape.org/) -->

<svg
   xmlns:dc="http://purl.org/dc/elements/1.1/"
   xmlns:cc="http://creativecommons.org/ns#"
   xmlns:rdf="http://www.w3.org/1999/02/22-rdf-syntax-ns#"
   xmlns:svg="http://www.w3.org/2000/svg"
   xmlns="http://www.w3.org/2000/svg"
   xmlns:sodipodi="http://sodipodi.sourceforge.net/DTD/sodipodi-0.dtd"
   xmlns:inkscape="http://www.inkscape.org/namespaces/inkscape"
   width="23.697935mm"
   height="10.227733mm"
   viewBox="0 0 23.697935 10.227733"
   version="1.1"
   id="svg8"
   inkscape:version="0.92.1 r"
   sodipodi:docname="logoShort.svg">
  <defs
     id="defs2" />
  <sodipodi:namedview
     id="base"
     pagecolor="#ffffff"
     bordercolor="#666666"
     borderopacity="1.0"
     inkscape:pageopacity="0.0"
     inkscape:pageshadow="2"
     inkscape:zoom="0.35"
     inkscape:cx="-371.36456"
     inkscape:cy="108.37943"
     inkscape:document-units="mm"
     inkscape:current-layer="layer1"
     showgrid="false"
     inkscape:window-width="1600"
     inkscape:window-height="900"
     inkscape:window-x="0"
     inkscape:window-y="0"
     inkscape:window-maximized="0" />
  <metadata
     id="metadata5">
    <rdf:RDF>
      <cc:Work
         rdf:about="">
        <dc:format>image/svg+xml</dc:format>
        <dc:type
           rdf:resource="http://purl.org/dc/dcmitype/StillImage" />
        <dc:title></dc:title>
      </cc:Work>
    </rdf:RDF>
  </metadata>
  <g
     inkscape:label="Layer 1"
     inkscape:groupmode="layer"
     id="layer1"
     transform="translate(-46.852112,-49.352418)">
    <g
       aria-label="MD"
       style="font-style:normal;font-variant:normal;font-weight:normal;font-stretch:normal;font-size:16.93333244px;line-height:6.61458302px;font-family:Airstream;-inkscape-font-specification:'Airstream, Normal';font-variant-ligatures:normal;font-variant-caps:normal;font-variant-numeric:normal;font-feature-settings:normal;text-align:start;letter-spacing:0px;word-spacing:0px;writing-mode:lr-tb;text-anchor:start;fill:#000000;fill-opacity:1;stroke:none;stroke-width:0.26458332px;stroke-linecap:butt;stroke-linejoin:miter;stroke-opacity:1"
       id="text4487">
      <path
         d="m 60.195578,49.572551 q -0.06773,0.135467 -0.135467,0.287867 -0.0508,0.135467 -0.135466,0.287867 0,0.01693 -0.01693,0.03387 0,0 0,0.01693 -0.1524,0.321733 -0.287866,0.626533 -0.135467,0.287867 -0.237067,0.474133 -0.118533,0.254 -0.254,0.541867 -0.135467,0.270933 -0.254,0.575733 -0.1524,0.287867 -0.287867,0.6096 -0.118533,0.3048 -0.254,0.6096 -0.3556,0.8636 -0.6096,1.710267 -0.254,0.829733 -0.254,1.4732 0,0.474133 0.254,0.778933 0.270934,0.3048 0.948267,0.321733 h 0.829733 l -0.541866,1.659467 h -0.287867 q -1.591733,0 -2.252133,-0.762 -0.643467,-0.762 -0.626534,-1.998133 0,-0.287867 0.03387,-0.575734 0.03387,-0.3048 0.1016,-0.6096 -0.677333,0.931334 -1.3716,1.913467 -0.694266,0.982133 -1.4732,2.032 h -1.794933 l 1.27,-5.1308 q -0.829733,1.303867 -1.7272,2.5908 -0.880533,1.286933 -1.862667,2.54 h -2.116666 q 0.389467,-0.508 0.795867,-1.032933 0.4064,-0.541867 0.8128,-1.1176 0.406399,-0.575734 0.812799,-1.1684 0.423334,-0.592667 0.829734,-1.185333 0.745066,-1.100667 1.439333,-2.1844 0.7112,-1.100667 1.3208,-2.065867 0.186267,-0.287867 0.372533,-0.575733 0.186267,-0.3048 0.423334,-0.677334 h 1.845733 l -1.439333,5.774267 q 0.118533,-0.169334 0.237066,-0.338667 0.135467,-0.186266 0.254,-0.3556 0.135467,-0.169333 0.254,-0.338666 0.135467,-0.186267 0.254,-0.3556 0.745067,-1.049867 1.507067,-2.1336 0.778933,-1.083734 1.6256,-2.252134 h 1.998133 z"
         style=""
         id="path4779" />
      <path
         d="m 70.00818,50.436151 q 0.287866,0.3556 0.4064,0.762 0.135466,0.4064 0.135466,0.8636 0,0.795867 -0.4064,1.6764 -0.406399,0.880534 -1.151466,1.778 -0.440267,0.541867 -0.999067,1.0668 -0.5588,0.524933 -1.2192,1.032933 -0.6096,0.4572 -1.185333,0.795867 -0.575733,0.338667 -1.151467,0.575733 -0.118533,0.0508 -0.237066,0.1016 -0.1016,0.03387 -0.220134,0.06773 -0.372533,0.135466 -0.761999,0.220133 -0.372534,0.06773 -0.745067,0.118533 -0.5588,0.06773 -1.134533,0.08467 -0.5588,0 -1.134534,0 -0.06773,0 -0.135466,0 -0.06773,0 -0.135467,0 l 2.1336,-6.536266 h 1.761066 l -1.557866,4.792133 q 0.982133,-0.135467 1.8288,-0.541867 0.8636,-0.4064 1.642533,-0.999067 0.237067,-0.186266 0.626533,-0.524933 0.4064,-0.338667 0.829734,-0.762 0.338666,-0.338666 0.6604,-0.7112 0.338666,-0.389466 0.592666,-0.778933 0.220134,-0.3556 0.338667,-0.694267 0.135467,-0.338666 0.135467,-0.6604 0,-0.220133 -0.06773,-0.4064 -0.06773,-0.2032 -0.237066,-0.372533 v -0.01693 q -0.169334,-0.186267 -0.491067,-0.270934 -0.321733,-0.08467 -0.762,-0.08467 -0.270933,0 -0.5588,0.03387 -0.287867,0.03387 -0.6096,0.08467 -1.016,0.169333 -2.1844,0.575733 -1.1684,0.389467 -2.370666,0.948267 -0.237067,0.1016 -0.474134,0.2032 -0.220133,0.1016 -0.440266,0.220133 l -0.728134,-1.524 q 0.287867,-0.135466 0.575734,-0.270933 0.3048,-0.135467 0.6096,-0.270933 1.236133,-0.524934 2.438399,-0.931334 1.2192,-0.4064 2.286,-0.592666 0.338667,-0.06773 0.694267,-0.1016 0.3556,-0.03387 0.728133,-0.03387 0.03387,0 0.0508,0 0.03387,0 0.06773,0 0.728133,0.01693 1.405466,0.254 0.694267,0.237067 1.151467,0.829733 z"
         style=""
         id="path4781" />
    </g>
  </g>
</svg>
