<svg width="260" height="48" viewBox="0 0 309 53" fill="none" xmlns="http://www.w3.org/2000/svg">
<g clip-path="url(#clip0)">
<path d="M60.6239 3.25444e-06C60.4187 0.404121 60.2136 0.833484 60.0084 1.28812C59.8545 1.69223 59.6494 2.12161 59.3929 2.57624C59.3929 2.62675 59.3673 2.67727 59.316 2.72781C59.316 2.72781 59.316 2.75306 59.316 2.80356C58.8544 3.76334 58.4185 4.69786 58.0082 5.60712C57.5978 6.46587 57.2388 7.17307 56.9311 7.72873C56.572 8.48644 56.1874 9.29467 55.7771 10.1534C55.3667 10.9617 54.9821 11.8204 54.6231 12.7297C54.1615 13.5884 53.7255 14.4977 53.3152 15.4574C52.9561 16.3667 52.5715 17.276 52.1612 18.1852C51.0841 20.7615 50.1609 23.3125 49.3916 25.8382C48.6222 28.3134 48.2375 30.5108 48.2375 32.4303C48.2375 33.8447 48.6222 35.0066 49.3916 35.9158C50.2122 36.8251 51.6483 37.305 53.6998 37.3555H57.4696L55.0077 44.7811H53.6998C48.8787 44.7811 45.4679 43.6446 43.4676 41.3714C41.5186 39.0983 40.5698 36.1179 40.6211 32.4303C40.6211 31.5716 40.6724 30.7129 40.775 29.8541C40.8776 28.9448 41.0314 28.0356 41.2366 27.1263C39.185 29.9046 37.1078 32.7587 35.0049 35.6885C32.9021 38.6184 30.671 41.6492 28.3117 44.7811H20.1567L25.9267 21.8223C23.4135 25.7119 20.7978 29.5763 18.0795 33.4154C15.4124 37.2545 12.5915 41.0431 9.61673 44.7811H2.02542e-06C1.17966 43.2657 2.38496 41.725 3.6159 40.1591C4.84684 38.5426 6.07778 36.8756 7.30872 35.1581C8.53966 33.4406 9.77061 31.6979 11.0016 29.9299C12.2838 28.1619 13.5404 26.3939 14.7713 24.6258C17.028 21.3424 19.2078 18.0842 21.3107 14.8513C23.4648 11.5678 25.4651 8.48645 27.3115 5.60712C27.8757 4.74837 28.4399 3.88962 29.0041 3.03088C29.5683 2.12162 30.2094 1.11133 30.9274 3.25444e-06H39.3132L32.7738 25.8382C33.1329 25.333 33.4919 24.8279 33.8509 24.3228C34.2612 23.7671 34.6459 23.2367 35.0049 22.7315C35.4152 22.2264 35.7999 21.7213 36.1589 21.2161C36.5692 20.6605 36.9539 20.1301 37.3129 19.6249C39.5697 16.493 41.852 13.3106 44.1601 10.0777C46.5194 6.84472 48.9813 3.48551 51.5457 3.25444e-06H60.6239H60.6239Z" transform="translate(0 2.7428)" fill="black"/>
<path d="M29.7734 16.9729L27.3115 24.4743H19.8489C19.0283 24.4743 18.2846 24.3481 17.6179 24.0955C16.9511 23.8429 16.3356 23.5145 15.7714 23.1104C15.0021 23.5651 14.1558 23.9439 13.2326 24.247C12.3607 24.5501 11.4888 24.7522 10.6169 24.8532C10.3091 24.9037 10.0014 24.9289 9.69368 24.9289C9.38594 24.9795 9.0782 25.0047 8.77046 25.0047C7.18049 25.0047 5.66747 24.6511 4.23137 23.9439C2.84656 23.2367 1.74384 22.1001 0.923208 20.5342C0.615472 19.8775 0.384666 19.246 0.230798 18.6399C0.0769306 17.9832 -4.76296e-06 17.3265 -4.76296e-06 16.6698C-4.76296e-06 15.3564 0.256448 14.0935 0.769339 12.8812C1.28223 11.6183 1.94899 10.4565 2.76962 9.39571C5.33408 6.01123 8.51402 3.63706 12.3094 2.27316C16.1561 0.858756 20.131 0.101023 24.2342 -6.98846e-06C24.388 -6.98846e-06 24.5419 -6.98846e-06 24.6958 -6.98846e-06C24.9009 -6.98846e-06 25.1061 -6.98846e-06 25.3113 -6.98846e-06V7.50142C23.67 7.50142 22.0287 7.60244 20.3875 7.80449C18.7975 8.00654 17.2588 8.38539 15.7714 8.94106C14.4379 9.39569 13.1813 10.0271 12.0017 10.8353C10.822 11.6436 9.79625 12.6286 8.92433 13.7905C8.87305 13.8915 8.79612 14.0178 8.69353 14.1693C8.59094 14.3209 8.48837 14.4977 8.38581 14.6997C8.28322 14.8513 8.18065 15.0028 8.07809 15.1544C8.02681 15.3059 7.94987 15.4827 7.84729 15.6848C7.79601 15.8363 7.74471 16.0131 7.6934 16.2152C7.64212 16.4172 7.61648 16.594 7.61648 16.7456C7.61648 16.9476 7.69342 17.1497 7.84729 17.3517C8.00115 17.5033 8.25761 17.5791 8.61663 17.5791C10.6169 17.5791 12.1043 16.9224 13.0788 15.609C14.0533 14.2956 14.8226 12.856 15.3868 11.29C15.4894 10.9364 15.592 10.608 15.6945 10.305C15.7971 10.0019 15.8997 9.69879 16.0022 9.39571L23.234 11.7446L21.5415 16.9729H29.7734V16.9729Z" transform="translate(58.584 23.1252)" fill="black"/>
<path d="M29.0041 26.4443L17.7717 34.6277L19.6951 38.9467C19.7977 38.9972 19.9259 39.0477 20.0798 39.0983C20.2849 39.0983 20.4901 39.0983 20.6952 39.0983H26.3883L23.8495 46.5997H20.6952C20.644 46.5997 20.567 46.5997 20.4644 46.5997C20.4132 46.5997 20.3619 46.5997 20.3105 46.5997C18.8232 46.5492 17.3871 46.1956 16.0023 45.5389C14.6174 44.8822 13.5917 43.7961 12.9249 42.2807L10.9246 37.8101L8.00114 46.5997H9.80545e-07L15.3099 5.41423e-06H23.311L14.1558 27.9598L24.465 20.3826L29.0041 26.4444V26.4443Z" transform="translate(87.6025 1)" fill="black"/>
<path d="M26.9268 18.0337L24.388 25.5351H7.61645C6.23164 25.5351 4.92376 25.2572 3.69282 24.7016C2.51316 24.0954 1.58994 23.1861 0.923178 21.9738C0.615442 21.4181 0.384654 20.812 0.230786 20.1553C0.076918 19.4986 0 18.8419 0 18.1852C0 18.0337 0 17.8821 0 17.7306C0.0512792 17.5285 0.0769171 17.3265 0.0769171 17.1244C0.179506 16.1141 0.384631 15.1038 0.692358 14.0935C1.05138 13.0327 1.41042 12.0729 1.76944 11.2142C2.84651 8.7895 4.1544 6.79419 5.69308 5.22824C7.28304 3.61177 8.9243 2.39942 10.6168 1.59118C11.3349 1.18707 12.0273 0.883977 12.6941 0.681917C13.4121 0.429334 14.1045 0.252546 14.7713 0.151528C15.079 0.101023 15.3867 0.0757723 15.6945 0.0757723C16.0022 0.0252677 16.3356 0 16.6946 0C18.7975 0 20.6695 0.580927 22.3108 1.74276C23.9521 2.9046 24.7727 4.52106 24.7727 6.59216C24.7727 6.99627 24.7214 7.42566 24.6188 7.88029C24.5675 8.2844 24.4393 8.73902 24.2341 9.24417C23.8238 10.507 22.9775 11.8962 21.6953 13.4116C20.4131 14.8765 18.6179 16.4172 16.3099 18.0337H26.9268L26.9268 18.0337ZM16.8485 7.34985C15.0021 7.45088 13.3865 8.15808 12.0017 9.47145C10.6169 10.7848 9.59108 12.2245 8.92432 13.7905C8.92432 13.841 8.89868 13.8915 8.8474 13.942C8.8474 13.942 8.8474 13.9673 8.8474 14.0178C11.2067 12.6539 13.0018 11.4163 14.2328 10.3049C15.515 9.14312 16.3869 8.15808 16.8485 7.34985V7.34985Z" transform="translate(115.031 22.0646)" fill="black"/>
<path d="M26.3114 10.9111H23.3879C23.0802 11.1132 22.6186 11.5173 22.0031 12.1235C21.3877 12.7297 20.7465 13.4116 20.0798 14.1693C19.8746 14.3714 19.6695 14.5987 19.4643 14.8513C19.2592 15.1039 19.054 15.3312 18.8489 15.5332C18.1821 16.392 17.6179 17.2002 17.1563 17.9579C16.6947 18.6651 16.4639 19.246 16.4639 19.7007C16.5152 19.9027 16.5921 20.0795 16.6947 20.2311C16.8486 20.3321 17.0794 20.3826 17.3871 20.3826H26.0037L23.5418 27.884C23.1828 27.884 22.7212 27.884 22.157 27.884C21.6441 27.884 21.0799 27.884 20.4645 27.884C19.849 27.884 19.2592 27.884 18.695 27.884C18.1821 27.884 17.7461 27.884 17.3871 27.884C15.7972 27.884 14.3097 27.5304 12.9249 26.8232C11.5914 26.116 10.54 25.0552 9.77063 23.6408C9.61677 23.3377 9.48857 23.0346 9.38598 22.7316C9.28339 22.4285 9.20644 22.1001 9.15516 21.7465C9.05257 21.4434 8.97565 21.1404 8.92437 20.8373C8.92437 20.5342 8.92437 20.2311 8.92437 19.928C8.92437 18.3115 9.2834 16.7456 10.0015 15.2302C10.7195 13.6642 11.5658 12.2245 12.5403 10.9112H11.3093C11.1555 10.9112 11.0016 10.9364 10.8477 10.9869C10.7451 10.9869 10.6169 11.0122 10.463 11.0627C9.95013 11.2142 9.46289 11.5173 9.00129 11.9719C8.53969 12.376 8.20628 12.8054 8.00113 13.2601C7.94985 13.3106 7.89857 13.3863 7.84726 13.4874C7.84726 13.5379 7.84726 13.5884 7.84726 13.6389L7.23178 15.3817L-1.63831e-05 13.0328L4.23136 2.95073e-06L11.5401 2.34893L11.1554 3.33397H26.3114V10.9111L26.3114 10.9111Z" transform="translate(140.326 19.7157)" fill="black"/>
<path d="M19.3104 17.8821C19.3104 21.2666 18.259 24.0197 16.1561 26.1413C14.0533 28.2629 11.258 29.3237 7.77032 29.3237H2.24727e-06L2.4619 21.8223H7.77032C9.10385 21.8223 10.0784 21.5192 10.6938 20.913C11.3606 20.2563 11.694 19.246 11.694 17.8821C11.694 17.1749 11.617 16.5183 11.4631 15.9121C11.3093 15.2554 11.1041 14.6745 10.8477 14.1693C9.87317 15.4827 9.0269 16.6193 8.30885 17.5791C7.64209 18.4883 7.30872 18.9682 7.30872 19.0187L1.154 14.624C1.154 14.624 1.69253 13.8662 2.76961 12.3508C3.89797 10.8354 5.15456 9.16838 6.53937 7.34986C7.8216 5.53134 9.02691 3.86436 10.1553 2.34892C11.2836 0.833485 11.8478 0.0505103 11.8478 -3.23368e-06L18.6949 3.33396C18.6437 3.38447 18.3359 3.81383 17.7717 4.62207C17.2075 5.43031 16.4895 6.41534 15.6176 7.57718C16.7972 8.99158 17.6948 10.608 18.3103 12.4266C18.977 14.1946 19.3104 16.0131 19.3104 17.8821V17.8821Z" transform="translate(166.769 18.2758)" fill="black"/>
<path d="M12.0786 6.24341e-06L7.30874 8.71375H-1.30643e-05L4.84684 6.24341e-06H12.0786Z" transform="translate(183.296 2.77844)" fill="black"/>
<path d="M45.7756 4.84938C46.6476 5.91019 47.2631 7.04677 47.6221 8.25912C48.0324 9.47147 48.2375 10.7596 48.2375 12.1235C48.2375 14.4977 47.6221 16.9981 46.3911 19.6249C45.1602 22.2517 43.4164 24.9037 41.1596 27.5809C39.8261 29.1974 38.3131 30.7886 36.6205 32.3546C34.928 33.9205 33.0816 35.4612 31.0813 36.9766C29.2349 38.3405 27.4398 39.5276 25.6959 40.5379C23.9521 41.5482 22.2083 42.407 20.4644 43.1142C20.1054 43.2657 19.7464 43.4172 19.3873 43.5688C19.0796 43.6698 18.7462 43.7709 18.3872 43.8719C17.2589 44.276 16.1048 44.6043 14.9252 44.8569C13.7968 45.0589 12.6684 45.2357 11.5401 45.3873C9.84753 45.5893 8.12936 45.7156 6.38552 45.7662C4.69298 45.7662 2.97477 45.7662 1.23093 45.7662C1.02579 45.7662 0.820622 45.7662 0.615457 45.7662C0.41031 45.7662 0.205185 45.7662 1.69089e-05 45.7662L9.69368 16.5182H17.6948L10.6169 37.9617C13.5917 37.5576 16.3613 36.7493 18.9257 35.537C21.5415 34.3246 24.029 32.8344 26.3883 31.0664C27.1064 30.5108 28.0552 29.7278 29.2349 28.7175C30.4658 27.7072 31.7224 26.5706 33.0046 25.3078C34.0304 24.2975 35.0306 23.2367 36.0051 22.1254C37.0309 20.9635 37.9284 19.8017 38.6978 18.6399C39.3645 17.579 39.8774 16.5435 40.2364 15.5332C40.6467 14.5229 40.8519 13.5379 40.8519 12.5781C40.8519 11.9214 40.7494 11.3152 40.5443 10.7596C40.3393 10.1534 39.9802 9.59776 39.4672 9.09261V9.01686C38.9544 8.4612 38.2106 8.05707 37.2361 7.8045C36.2616 7.55192 35.1076 7.42562 33.7741 7.42562C32.9535 7.42562 32.1072 7.47614 31.2353 7.57718C30.3634 7.67822 29.4402 7.80452 28.4657 7.95606C25.3883 8.46121 22.0801 9.31995 18.5412 10.5323C15.0022 11.6941 11.412 13.1085 7.77044 14.7755C7.05239 15.0786 6.33436 15.3817 5.61631 15.6848C4.94955 15.9879 4.28278 16.3162 3.61602 16.6698L0.307858 9.85035C1.17978 9.44624 2.05171 9.04211 2.92363 8.638C3.84683 8.23388 4.77002 7.82977 5.69323 7.42566C9.43735 5.8597 13.1302 4.47055 16.7717 3.2582C20.4645 2.04585 23.9266 1.16184 27.1578 0.606182C28.1836 0.404134 29.235 0.252604 30.3121 0.151565C31.3891 0.0505263 32.4919 3.61058e-06 33.6203 3.61058e-06C33.7229 3.61058e-06 33.7999 3.61058e-06 33.8511 3.61058e-06C33.9538 3.61058e-06 34.0563 3.61058e-06 34.1586 3.61058e-06C36.3641 0.0505082 38.4926 0.429358 40.5442 1.13657C42.647 1.84378 44.3908 3.08139 45.7756 4.8494V4.84938Z" transform="translate(212.645 1.75757)" fill="black"/>
<path d="M26.9269 18.0337L24.3881 25.5351H7.61645C6.23164 25.5351 4.92376 25.2572 3.69282 24.7016C2.51315 24.0954 1.58996 23.1861 0.923213 21.9738C0.615477 21.4181 0.384688 20.812 0.23082 20.1553C0.0769527 19.4986 0 18.8419 0 18.1852C0 18.0337 0 17.8821 0 17.7306C0.0511883 17.5285 0.0767784 17.3265 0.0767784 17.1244C0.179458 16.1141 0.384643 15.1038 0.692288 14.0935C1.0513 13.0327 1.41032 12.0729 1.76937 11.2142C2.84644 8.7895 4.15433 6.79419 5.69301 5.22824C7.28296 3.61177 8.92419 2.39942 10.6167 1.59118C11.3348 1.18707 12.0272 0.883977 12.6939 0.681917C13.412 0.429334 14.1044 0.252546 14.7712 0.151528C15.0789 0.101023 15.3866 0.0757723 15.6944 0.0757723C16.0021 0.0252677 16.3355 0 16.6945 0C18.7974 0 20.6695 0.580927 22.3107 1.74276C23.952 2.9046 24.7726 4.52106 24.7726 6.59216C24.7726 6.99627 24.7212 7.42566 24.6186 7.88029C24.5674 8.2844 24.4391 8.73902 24.2337 9.24417C23.8234 10.507 22.9771 11.8962 21.6949 13.4116C20.4127 14.8765 18.6176 16.4172 16.3095 18.0337L26.9269 18.0337ZM16.8485 7.34985C15.0021 7.45088 13.3865 8.15808 12.0017 9.47145C10.6169 10.7848 9.5911 12.2245 8.92435 13.7905C8.92435 13.841 8.89876 13.8915 8.84758 13.942C8.84758 13.942 8.84758 13.9673 8.84758 14.0178C11.2069 12.6539 13.002 11.4163 14.233 10.3049C15.5152 9.14312 16.3869 8.15808 16.8485 7.34985Z" transform="translate(251.849 22.0646)" fill="black"/>
<path d="M31.2361 17.0486L28.6973 24.55H23.3888C21.4912 24.55 19.9525 23.9439 18.7728 22.7315C17.5932 21.5192 17.0033 20.0542 17.0033 18.3367C17.0033 17.9831 17.0289 17.6296 17.0801 17.2759C17.1828 16.8718 17.2853 16.493 17.3877 16.1394C17.4904 15.7858 17.5929 15.4574 17.6953 15.1543C17.798 14.8007 17.9005 14.4724 18.0029 14.1693C18.2079 13.5126 18.4131 12.8559 18.6183 12.1992C18.8233 11.5425 19.0285 10.8858 19.2338 10.2292C19.285 10.1281 19.3106 10.0271 19.3106 9.92609C19.3618 9.82505 19.3874 9.72402 19.3874 9.62301C19.49 9.37043 19.567 9.09261 19.6181 8.78954C19.7208 8.48645 19.7978 8.18336 19.849 7.88027C19.4386 8.03181 18.9514 8.28437 18.3872 8.63797C17.823 8.99158 17.2588 9.42096 16.6946 9.9261C15.2585 11.1385 13.8994 12.5781 12.6171 14.2451C11.3862 15.9121 10.4117 17.6296 9.6937 19.3976L8.00111 24.5501H0L8.07806 0H16.0792L15.5406 1.5912C16.1048 1.28811 16.669 1.03554 17.2332 0.833478C17.8486 0.580896 18.4641 0.404107 19.0796 0.303089C19.3873 0.20205 19.6694 0.151528 19.9259 0.151528C20.2336 0.101023 20.5414 0.0757723 20.8491 0.0757723C21.2594 0.0757723 21.6697 0.126295 22.08 0.227334C22.5416 0.277839 22.952 0.378863 23.311 0.530406C24.7984 1.03555 25.8754 1.91955 26.5422 3.18242C27.209 4.44528 27.5423 5.80917 27.5423 7.27409C27.5423 8.03181 27.4398 8.8653 27.2347 9.77456C27.0809 10.6333 26.8244 11.5678 26.4654 12.5781C26.3115 12.9317 26.1832 13.3106 26.0806 13.7147C25.9779 14.0683 25.8753 14.4219 25.773 14.7755C25.7218 14.927 25.6704 15.0786 25.619 15.2301C25.5678 15.3312 25.5422 15.4322 25.5422 15.5332C25.4395 15.7858 25.3625 16.0384 25.3114 16.2909C25.2602 16.5435 25.1833 16.7961 25.0806 17.0486H31.2361Z" transform="translate(278.065 23.0497)" fill="black"/>
</g>
<defs>
<clipPath id="clip0">
<rect width="309" height="53" fill="white"/>
</clipPath>
</defs>
</svg>
