<?xml version="1.0" encoding="UTF-8" standalone="no"?>
<!-- Created with Inkscape (http://www.inkscape.org/) -->

<svg
   xmlns:dc="http://purl.org/dc/elements/1.1/"
   xmlns:cc="http://creativecommons.org/ns#"
   xmlns:rdf="http://www.w3.org/1999/02/22-rdf-syntax-ns#"
   xmlns:svg="http://www.w3.org/2000/svg"
   xmlns="http://www.w3.org/2000/svg"
   xmlns:sodipodi="http://sodipodi.sourceforge.net/DTD/sodipodi-0.dtd"
   xmlns:inkscape="http://www.inkscape.org/namespaces/inkscape"
   id="svg2614"
   sodipodi:version="0.32"
   inkscape:version="0.47 r22583"
   width="258.00995"
   height="194.00755"
   version="1.0"
   sodipodi:docname="envelope.svg"
   inkscape:output_extension="org.inkscape.output.svg.inkscape">
  <metadata
     id="metadata2619">
    <rdf:RDF>
      <cc:Work
         rdf:about="">
        <dc:format>image/svg+xml</dc:format>
        <dc:type
           rdf:resource="http://purl.org/dc/dcmitype/StillImage" />
      </cc:Work>
    </rdf:RDF>
  </metadata>
  <defs
     id="defs2617" />
  <sodipodi:namedview
     inkscape:window-height="582"
     inkscape:window-width="1024"
     inkscape:pageshadow="2"
     inkscape:pageopacity="0.0"
     guidetolerance="10.0"
     gridtolerance="10.0"
     objecttolerance="10.0"
     borderopacity="1.0"
     bordercolor="#666666"
     pagecolor="#ffffff"
     id="base"
     showgrid="false"
     inkscape:zoom="1.3029197"
     inkscape:cx="130"
     inkscape:cy="99.00755"
     inkscape:window-x="-8"
     inkscape:window-y="-8"
     inkscape:current-layer="svg2614"
     inkscape:snap-page="false"
     inkscape:window-maximized="0" />
  <path
     style="fill:#ffffff"
     d="M 0,97.00377 0,0 129.00497,0 258.00995,0 257.75497,96.75 257.5,193.5 128.75,193.75377 0,194.00755 0,97.00377 z m 203.25561,47.75479 -42.24144,-42.24143 -11.75708,11.64086 c -12.15071,12.03059 -16.16572,14.86722 -20.95743,14.80657 -4.12528,-0.0522 -5.85964,-1.32169 -19.35007,-14.16339 L 96.65978,103.10234 54.829888,144.17892 C 31.82345,166.77103 13,185.64801 13,186.12775 13,186.61908 63.76621,187 129.24852,187 l 116.24852,0 -42.24143,-42.24144 z M 49.248521,54.751479 7,12.502959 7,97 7,181.49704 49.248521,139.24852 91.49704,97 49.248521,54.751479 z M 251,96.91667 C 251,50.670833 250.63934,12.983333 250.19852,13.166667 249.75771,13.35 230.77241,32.312699 208.00897,55.305998 L 166.6209,97.112 208.55599,139.056 C 231.62028,162.1252 250.60558,181 250.74554,181 250.88549,181 251,143.1625 251,96.91667 z M 188.1087,64.75281 244.7174,7.5 186.8587,7.241942 c -31.82228,-0.141932 -84.0685,-0.141932 -116.10269,0 L 12.51201,7.5 l 56.994,57.28148 c 45.3652,45.59402 57.50408,57.27562 59.49399,57.25281 1.96251,-0.0225 14.67058,-12.33773 59.1087,-57.28148 z"
     id="path2625" />
</svg>
